<svg xmlns="http://www.w3.org/2000/svg" width="1120" height="820" viewBox="0 0 1120 820">
<rect width="1120" height="820" fill="#f8f9fb" />
<style>text { font-family: Arial, Helvetica, sans-serif; fill: #202124; }</style>
<text x="560" y="42" text-anchor="middle" font-size="24" font-weight="700">Voyager OD Trajectory Error: VLBI Comparison</text>
<text x="560" y="72" text-anchor="middle" font-size="15">Final position error: 107.046 km without VLBI, 111.444 km with VLBI (-4.398 km lower)</text>
<text x="150" y="127" font-size="17" font-weight="700">Position Error</text>
<rect x="150" y="145" width="900" height="255" fill="#ffffff" stroke="#333333" />
<line x1="150" y1="400.00" x2="1050" y2="400.00" stroke="#dddddd" />
<text x="140" y="404.00" font-size="12" text-anchor="end">32.97</text>
<line x1="150" y1="336.25" x2="1050" y2="336.25" stroke="#dddddd" />
<text x="140" y="340.25" font-size="12" text-anchor="end">53.70</text>
<line x1="150" y1="272.50" x2="1050" y2="272.50" stroke="#dddddd" />
<text x="140" y="276.50" font-size="12" text-anchor="end">74.43</text>
<line x1="150" y1="208.75" x2="1050" y2="208.75" stroke="#dddddd" />
<text x="140" y="212.75" font-size="12" text-anchor="end">95.16</text>
<line x1="150" y1="145.00" x2="1050" y2="145.00" stroke="#dddddd" />
<text x="140" y="149.00" font-size="12" text-anchor="end">115.89</text>
<line x1="150.00" y1="145" x2="150.00" y2="400" stroke="#eeeeee" />
<text x="150.00" y="418" font-size="12" text-anchor="middle">0</text>
<line x1="300.00" y1="145" x2="300.00" y2="400" stroke="#eeeeee" />
<text x="300.00" y="418" font-size="12" text-anchor="middle">16</text>
<line x1="450.00" y1="145" x2="450.00" y2="400" stroke="#eeeeee" />
<text x="450.00" y="418" font-size="12" text-anchor="middle">32</text>
<line x1="600.00" y1="145" x2="600.00" y2="400" stroke="#eeeeee" />
<text x="600.00" y="418" font-size="12" text-anchor="middle">48</text>
<line x1="750.00" y1="145" x2="750.00" y2="400" stroke="#eeeeee" />
<text x="750.00" y="418" font-size="12" text-anchor="middle">64</text>
<line x1="900.00" y1="145" x2="900.00" y2="400" stroke="#eeeeee" />
<text x="900.00" y="418" font-size="12" text-anchor="middle">80</text>
<line x1="1050.00" y1="145" x2="1050.00" y2="400" stroke="#eeeeee" />
<text x="1050.00" y="418" font-size="12" text-anchor="middle">96</text>
<polyline fill="none" stroke="#1f77b4" stroke-width="2.5" points="150.00,348.38 150.47,348.21 150.94,348.04 151.41,347.87 151.88,347.70 152.34,347.53 152.81,347.35 153.28,347.18 153.75,347.01 154.22,346.84 154.69,346.67 155.16,346.49 155.62,346.32 156.09,346.15 156.56,345.98 157.03,345.81 157.50,345.63 157.97,345.46 158.44,345.29 158.91,345.12 159.38,344.94 159.84,344.77 160.31,344.60 160.78,344.43 161.25,344.25 161.72,344.08 162.19,343.91 162.66,343.73 163.12,343.56 163.59,343.39 164.06,343.21 164.53,343.04 165.00,342.87 165.47,342.70 165.94,342.52 166.41,342.35 166.88,342.18 167.34,342.00 167.81,341.83 168.28,341.66 168.75,341.48 169.22,341.31 169.69,341.13 170.16,340.96 170.62,340.79 171.09,340.61 171.56,340.44 172.03,340.27 172.50,340.09 172.97,339.92 173.44,339.74 173.91,339.57 174.38,339.40 174.84,339.22 175.31,339.05 175.78,338.87 176.25,338.70 176.72,338.53 177.19,338.35 177.66,338.18 178.12,338.00 178.59,337.83 179.06,337.65 179.53,337.48 180.00,337.30 180.47,337.13 180.94,336.96 181.41,336.78 181.88,336.61 182.34,336.43 182.81,336.26 183.28,336.08 183.75,335.91 184.22,335.73 184.69,335.56 185.16,335.38 185.62,335.21 186.09,335.03 186.56,334.86 187.03,334.68 187.50,334.51 187.97,334.33 188.44,334.15 188.91,333.98 189.38,333.80 189.84,333.63 190.31,333.45 190.78,333.28 191.25,333.10 191.72,332.93 192.19,332.75 192.66,332.58 193.12,332.40 193.59,332.22 194.06,332.05 194.53,331.87 195.00,331.70 195.47,331.52 195.94,331.34 196.41,331.17 196.88,330.99 197.34,330.82 197.81,330.64 198.28,330.46 198.75,330.29 199.22,330.11 199.69,329.94 200.16,329.76 200.62,329.58 201.09,329.41 201.56,329.23 202.03,329.05 202.50,328.88 202.97,328.70 203.44,328.52 203.91,328.35 204.38,328.17 204.84,327.99 205.31,327.82 205.78,327.64 206.25,327.46 206.72,327.29 207.19,327.11 207.66,326.93 208.12,326.76 208.59,326.58 209.06,326.40 209.53,326.23 210.00,326.05 210.47,325.87 210.94,325.69 211.41,325.52 211.88,325.34 212.34,325.16 212.81,324.99 213.28,324.81 213.75,324.63 214.22,324.45 214.69,324.28 215.16,324.10 215.62,323.92 216.09,323.74 216.56,323.57 217.03,323.39 217.50,323.21 217.97,323.03 218.44,322.86 218.91,322.68 219.38,322.50 219.84,322.32 220.31,322.14 220.78,321.97 221.25,321.79 221.72,321.61 222.19,321.43 222.66,321.25 223.12,321.08 223.59,320.90 224.06,320.72 224.53,320.54 225.00,320.36 225.47,320.19 225.94,320.01 226.41,319.83 226.88,319.65 227.34,319.47 227.81,319.29 228.28,319.12 228.75,318.94 229.22,318.76 229.69,318.58 230.16,318.40 230.62,318.22 231.09,318.05 231.56,317.87 232.03,317.69 232.50,317.51 232.97,317.33 233.44,317.15 233.91,316.97 234.38,316.79 234.84,316.62 235.31,316.44 235.78,316.26 236.25,316.08 236.72,315.90 237.19,315.72 237.66,315.54 238.12,315.36 238.59,315.18 239.06,315.01 239.53,314.83 240.00,314.65 240.47,314.47 240.94,314.29 241.41,314.11 241.88,313.93 242.34,313.75 242.81,313.57 243.28,313.39 243.75,313.21 244.22,313.03 244.69,312.85 245.16,312.68 245.62,312.50 246.09,312.32 246.56,312.14 247.03,311.96 247.50,311.78 247.97,311.60 248.44,311.42 248.91,311.24 249.38,311.06 249.84,310.88 250.31,310.70 250.78,310.52 251.25,310.34 251.72,310.16 252.19,309.98 252.66,309.80 253.12,309.62 253.59,309.44 254.06,309.26 254.53,309.08 255.00,308.90 255.47,308.72 255.94,308.54 256.41,308.36 256.88,308.18 257.34,308.00 257.81,307.82 258.28,307.64 258.75,307.46 259.22,307.28 259.69,307.10 260.16,306.92 260.62,306.74 261.09,306.56 261.56,306.38 262.03,306.20 262.50,306.02 262.97,305.84 263.44,305.66 263.91,305.48 264.38,305.30 264.84,305.12 265.31,304.93 265.78,304.75 266.25,304.57 266.72,304.39 267.19,304.21 267.66,304.03 268.12,303.85 268.59,303.67 269.06,303.49 269.53,303.31 270.00,303.13 270.47,302.95 270.94,302.77 271.41,302.58 271.88,302.40 272.34,302.22 272.81,302.04 273.28,301.86 273.75,301.68 274.22,301.50 274.69,301.32 275.16,301.14 275.62,300.96 276.09,300.77 276.56,300.59 277.03,300.41 277.50,300.23 277.97,300.05 278.44,299.87 278.91,299.69 279.38,299.51 279.84,299.32 280.31,299.14 280.78,298.96 281.25,298.78 281.72,298.60 282.19,298.42 282.66,298.24 283.12,298.06 283.59,297.87 284.06,297.69 284.53,297.51 285.00,297.33 285.47,297.15 285.94,296.97 286.41,296.78 286.88,296.60 287.34,296.42 287.81,296.24 288.28,296.06 288.75,295.88 289.22,295.69 289.69,295.51 290.16,295.33 290.62,295.15 291.09,294.97 291.56,294.78 292.03,294.60 292.50,294.42 292.97,294.24 293.44,294.06 293.91,293.88 294.38,293.69 294.84,293.51 295.31,293.33 295.78,293.15 296.25,292.97 296.72,292.78 297.19,292.60 297.66,292.42 298.12,292.24 298.59,292.05 299.06,291.87 299.53,291.69 300.00,291.51 300.47,291.33 300.94,291.14 301.41,290.96 301.88,290.78 302.34,290.60 302.81,290.41 303.28,290.23 303.75,290.05 304.22,289.87 304.69,289.68 305.16,289.50 305.62,289.32 306.09,289.14 306.56,288.95 307.03,288.77 307.50,288.59 307.97,288.41 308.44,288.22 308.91,288.04 309.38,287.86 309.84,287.68 310.31,287.49 310.78,287.31 311.25,287.13 311.72,286.95 312.19,286.76 312.66,286.58 313.12,286.40 313.59,286.21 314.06,286.03 314.53,285.85 315.00,285.67 315.47,285.48 315.94,285.30 316.41,285.12 316.88,284.93 317.34,284.75 317.81,284.57 318.28,284.38 318.75,284.20 319.22,284.02 319.69,283.84 320.16,283.65 320.62,283.47 321.09,283.29 321.56,283.10 322.03,282.92 322.50,282.74 322.97,282.55 323.44,282.37 323.91,282.19 324.38,282.00 324.84,281.82 325.31,281.64 325.78,281.45 326.25,281.27 326.72,281.09 327.19,280.90 327.66,280.72 328.12,280.54 328.59,280.35 329.06,280.17 329.53,279.99 330.00,279.80 330.47,279.62 330.94,279.44 331.41,279.25 331.88,279.07 332.34,278.89 332.81,278.70 333.28,278.52 333.75,278.34 334.22,278.15 334.69,277.97 335.16,277.78 335.62,277.60 336.09,277.42 336.56,277.23 337.03,277.05 337.50,276.87 337.97,276.68 338.44,276.50 338.91,276.32 339.38,276.13 339.84,275.95 340.31,275.76 340.78,275.58 341.25,275.40 341.72,275.21 342.19,275.03 342.66,274.84 343.12,274.66 343.59,274.48 344.06,274.29 344.53,274.11 345.00,273.92 345.47,273.74 345.94,273.56 346.41,273.37 346.88,273.19 347.34,273.00 347.81,272.82 348.28,272.64 348.75,272.45 349.22,272.27 349.69,272.08 350.16,271.90 350.62,271.72 351.09,271.53 351.56,271.35 352.03,271.16 352.50,270.98 352.97,270.79 353.44,270.61 353.91,270.43 354.38,270.24 354.84,270.06 355.31,269.87 355.78,269.69 356.25,269.50 356.72,269.32 357.19,269.14 357.66,268.95 358.12,268.77 358.59,268.58 359.06,268.40 359.53,268.21 360.00,268.03 360.47,267.84 360.94,267.66 361.41,267.48 361.88,267.29 362.34,267.11 362.81,266.92 363.28,266.74 363.75,266.55 364.22,266.37 364.69,266.18 365.16,266.00 365.62,265.81 366.09,265.63 366.56,265.44 367.03,265.26 367.50,265.08 367.97,264.89 368.44,264.71 368.91,264.52 369.38,264.34 369.84,264.15 370.31,263.97 370.78,263.78 371.25,263.60 371.72,263.41 372.19,263.23 372.66,263.04 373.12,262.86 373.59,262.67 374.06,262.49 374.53,262.30 375.00,262.12 375.47,261.93 375.94,261.75 376.41,261.56 376.88,261.38 377.34,261.19 377.81,261.01 378.28,260.82 378.75,260.64 379.22,260.45 379.69,260.27 380.16,260.08 380.62,259.90 381.09,259.71 381.56,259.53 382.03,259.34 382.50,259.16 382.97,258.97 383.44,258.79 383.91,258.60 384.38,258.42 384.84,258.23 385.31,258.05 385.78,257.86 386.25,257.68 386.72,257.49 387.19,257.30 387.66,257.12 388.12,256.93 388.59,256.75 389.06,256.56 389.53,256.38 390.00,256.19 390.47,256.01 390.94,255.82 391.41,255.64 391.88,255.45 392.34,255.27 392.81,255.08 393.28,254.89 393.75,254.71 394.22,254.52 394.69,254.34 395.16,254.15 395.62,253.97 396.09,253.78 396.56,253.60 397.03,253.41 397.50,253.22 397.97,253.04 398.44,252.85 398.91,252.67 399.38,252.48 399.84,252.30 400.31,252.11 400.78,251.93 401.25,251.74 401.72,251.55 402.19,251.37 402.66,251.18 403.12,251.00 403.59,250.81 404.06,250.63 404.53,250.44 405.00,250.25 405.47,250.07 405.94,249.88 406.41,249.70 406.88,249.51 407.34,249.33 407.81,249.14 408.28,248.95 408.75,248.77 409.22,248.58 409.69,248.40 410.16,248.21 410.62,248.02 411.09,247.84 411.56,247.65 412.03,247.47 412.50,247.28 412.97,247.09 413.44,246.91 413.91,246.72 414.38,246.54 414.84,246.35 415.31,246.16 415.78,245.98 416.25,245.79 416.72,245.61 417.19,245.42 417.66,245.23 418.12,245.05 418.59,244.86 419.06,244.68 419.53,244.49 420.00,244.30 420.47,244.12 420.94,243.93 421.41,243.75 421.88,243.56 422.34,243.37 422.81,243.19 423.28,243.00 423.75,242.81 424.22,242.63 424.69,242.44 425.16,242.26 425.62,242.07 426.09,241.88 426.56,241.70 427.03,241.51 427.50,241.32 427.97,241.14 428.44,240.95 428.91,240.76 429.38,240.58 429.84,240.39 430.31,240.21 430.78,240.02 431.25,239.83 431.72,239.65 432.19,239.46 432.66,239.27 433.12,239.09 433.59,238.90 434.06,238.71 434.53,238.53 435.00,238.34 435.47,238.16 435.94,237.97 436.41,237.78 436.88,237.60 437.34,237.41 437.81,237.22 438.28,237.04 438.75,236.85 439.22,236.66 439.69,236.48 440.16,236.29 440.62,236.10 441.09,235.92 441.56,235.73 442.03,235.54 442.50,235.36 442.97,235.17 443.44,234.98 443.91,234.80 444.38,234.61 444.84,234.42 445.31,234.24 445.78,234.05 446.25,233.86 446.72,233.68 447.19,233.49 447.66,233.30 448.12,233.12 448.59,232.93 449.06,232.74 449.53,232.56 450.00,232.37 450.47,232.18 450.94,232.00 451.41,231.81 451.88,231.62 452.34,231.43 452.81,231.25 453.28,231.06 453.75,230.87 454.22,230.69 454.69,230.50 455.16,230.31 455.62,230.13 456.09,229.94 456.56,229.75 457.03,229.57 457.50,229.38 457.97,229.19 458.44,229.00 458.91,228.82 459.38,228.63 459.84,228.44 460.31,228.26 460.78,228.07 461.25,227.88 461.72,227.70 462.19,227.51 462.66,227.32 463.12,227.13 463.59,226.95 464.06,226.76 464.53,226.57 465.00,226.39 465.47,226.20 465.94,226.01 466.41,225.82 466.87,225.64 467.34,225.45 467.81,225.26 468.28,225.08 468.75,224.89 469.22,224.70 469.69,224.51 470.16,224.33 470.63,224.14 471.09,223.95 471.56,223.77 472.03,223.58 472.50,223.39 472.97,223.20 473.44,223.02 473.91,222.83 474.38,222.64 474.84,222.46 475.31,222.27 475.78,222.08 476.25,221.89 476.72,221.71 477.19,221.52 477.66,221.33 478.12,221.14 478.59,220.96 479.06,220.77 479.53,220.58 480.00,220.39 480.47,220.21 480.94,220.02 481.41,219.83 481.88,219.64 482.34,219.46 482.81,219.27 483.28,219.08 483.75,218.90 484.22,218.71 484.69,218.52 485.16,218.33 485.62,218.15 486.09,217.96 486.56,217.77 487.03,217.58 487.50,217.40 487.97,217.21 488.44,217.02 488.91,216.83 489.38,216.64 489.84,216.46 490.31,216.27 490.78,216.08 491.25,215.89 491.72,215.71 492.19,215.52 492.66,215.33 493.12,215.14 493.59,214.96 494.06,214.77 494.53,214.58 495.00,214.39 495.47,214.21 495.94,214.02 496.41,213.83 496.88,213.64 497.34,213.46 497.81,213.27 498.28,213.08 498.75,212.89 499.22,212.70 499.69,212.52 500.16,212.33 500.62,212.14 501.09,211.95 501.56,211.77 502.03,211.58 502.50,211.39 502.97,211.20 503.44,211.01 503.91,210.83 504.38,210.64 504.84,210.45 505.31,210.26 505.78,210.08 506.25,209.89 506.72,209.70 507.19,209.51 507.66,209.32 508.12,209.14 508.59,208.95 509.06,208.76 509.53,208.57 510.00,208.38 510.47,208.20 510.94,208.01 511.41,207.82 511.88,207.63 512.34,207.45 512.81,207.26 513.28,207.07 513.75,206.88 514.22,206.69 514.69,206.51 515.16,206.32 515.62,206.13 516.09,205.94 516.56,205.75 517.03,205.57 517.50,205.38 517.97,205.19 518.44,205.00 518.91,204.81 519.38,204.63 519.84,204.44 520.31,204.25 520.78,204.06 521.25,203.87 521.72,203.69 522.19,203.50 522.66,203.31 523.12,203.12 523.59,202.93 524.06,202.74 524.53,202.56 525.00,202.37 525.47,202.18 525.94,201.99 526.41,201.80 526.88,201.62 527.34,201.43 527.81,201.24 528.28,201.05 528.75,200.86 529.22,200.67 529.69,200.49 530.16,200.30 530.62,200.11 531.09,199.92 531.56,199.73 532.03,199.55 532.50,199.36 532.97,199.17 533.44,198.98 533.91,198.79 534.38,198.60 534.84,198.42 535.31,198.23 535.78,198.04 536.25,197.85 536.72,197.66 537.19,197.47 537.66,197.29 538.12,197.10 538.59,196.91 539.06,196.72 539.53,196.53 540.00,196.34 540.47,196.16 540.94,195.97 541.41,195.78 541.88,195.59 542.34,195.40 542.81,195.21 543.28,195.03 543.75,194.84 544.22,194.65 544.69,194.46 545.16,194.27 545.62,194.08 546.09,193.90 546.56,193.71 547.03,193.52 547.50,193.33 547.97,193.14 548.44,192.95 548.91,192.76 549.38,192.58 549.84,192.39 550.31,192.20 550.78,192.01 551.25,191.82 551.72,191.63 552.19,191.45 552.66,191.26 553.12,191.07 553.59,190.88 554.06,190.69 554.53,190.50 555.00,190.31 555.47,190.13 555.94,189.94 556.41,189.75 556.88,189.56 557.34,189.37 557.81,189.18 558.28,188.99 558.75,188.81 559.22,188.62 559.69,188.43 560.16,188.24 560.62,188.05 561.09,187.86 561.56,187.67 562.03,187.49 562.50,187.30 562.97,187.11 563.44,186.92 563.91,186.73 564.38,186.54 564.84,186.35 565.31,186.16 565.78,185.98 566.25,185.79 566.72,185.60 567.19,185.41 567.66,185.22 568.12,185.03 568.59,184.84 569.06,184.65 569.53,184.47 570.00,184.28 570.47,184.09 570.94,183.90 571.41,183.71 571.88,183.52 572.34,183.33 572.81,183.14 573.28,182.96 573.75,182.77 574.22,182.58 574.69,182.39 575.16,182.20 575.62,182.01 576.09,181.82 576.56,181.63 577.03,181.45 577.50,181.26 577.97,181.07 578.44,180.88 578.91,180.69 579.38,180.50 579.84,180.31 580.31,180.12 580.78,179.93 581.25,179.75 581.72,179.56 582.19,179.37 582.66,179.18 583.12,178.99 583.59,178.80 584.06,178.61 584.53,178.42 585.00,178.23 585.47,178.05 585.94,177.86 586.41,177.67 586.88,177.48 587.34,177.29 587.81,177.10 588.28,176.91 588.75,176.72 589.22,176.53 589.69,176.34 590.16,176.16 590.62,175.97 591.09,175.78 591.56,175.59 592.03,175.40 592.50,175.21 592.97,175.02 593.44,174.83 593.91,174.64 594.38,174.45 594.84,174.27 595.31,174.08 595.78,173.89 596.25,173.70 596.72,173.51 597.19,173.32 597.66,173.13 598.12,172.94 598.59,172.75 599.06,172.56 599.53,172.37 600.00,172.19" />
<polyline fill="none" stroke="#d62728" stroke-width="2.5" points="150.00,386.34 150.47,386.23 150.94,386.12 151.41,386.01 151.88,385.89 152.34,385.78 152.81,385.67 153.28,385.56 153.75,385.45 154.22,385.34 154.69,385.23 155.16,385.11 155.62,385.00 156.09,384.89 156.56,384.78 157.03,384.67 157.50,384.56 157.97,384.44 158.44,384.33 158.91,384.22 159.38,384.11 159.84,384.00 160.31,383.89 160.78,383.77 161.25,383.66 161.72,383.55 162.19,383.44 162.66,383.33 163.12,383.22 163.59,383.10 164.06,382.99 164.53,382.88 165.00,382.77 165.47,382.66 165.94,382.54 166.41,382.43 166.88,382.32 167.34,382.21 167.81,382.10 168.28,381.98 168.75,381.87 169.22,381.76 169.69,381.65 170.16,381.54 170.62,381.42 171.09,381.31 171.56,381.20 172.03,381.09 172.50,380.97 172.97,380.86 173.44,380.75 173.91,380.64 174.38,380.53 174.84,380.41 175.31,380.30 175.78,380.19 176.25,380.08 176.72,379.96 177.19,379.85 177.66,379.74 178.12,379.63 178.59,379.51 179.06,379.40 179.53,379.29 180.00,379.18 180.47,379.06 180.94,378.95 181.41,378.84 181.88,378.73 182.34,378.61 182.81,378.50 183.28,378.39 183.75,378.27 184.22,378.16 184.69,378.05 185.16,377.94 185.62,377.82 186.09,377.71 186.56,377.60 187.03,377.49 187.50,377.37 187.97,377.26 188.44,377.15 188.91,377.03 189.38,376.92 189.84,376.81 190.31,376.70 190.78,376.58 191.25,376.47 191.72,376.36 192.19,376.24 192.66,376.13 193.12,376.02 193.59,375.90 194.06,375.79 194.53,375.68 195.00,375.56 195.47,375.45 195.94,375.34 196.41,375.23 196.88,375.11 197.34,375.00 197.81,374.89 198.28,374.77 198.75,374.66 199.22,374.55 199.69,374.43 200.16,374.32 200.62,374.21 201.09,374.09 201.56,373.98 202.03,373.87 202.50,373.75 202.97,373.64 203.44,373.53 203.91,373.41 204.38,373.30 204.84,373.19 205.31,373.07 205.78,372.96 206.25,372.85 206.72,372.73 207.19,372.62 207.66,372.50 208.12,372.39 208.59,372.28 209.06,372.16 209.53,372.05 210.00,371.94 210.47,371.82 210.94,371.71 211.41,371.60 211.88,371.48 212.34,371.37 212.81,371.25 213.28,371.14 213.75,371.03 214.22,370.91 214.69,370.80 215.16,370.69 215.62,370.57 216.09,370.46 216.56,370.34 217.03,370.23 217.50,370.12 217.97,370.00 218.44,369.89 218.91,369.77 219.38,369.66 219.84,369.55 220.31,369.43 220.78,369.32 221.25,369.20 221.72,369.09 222.19,368.98 222.66,368.86 223.12,368.75 223.59,368.63 224.06,368.52 224.53,368.41 225.00,368.29 225.47,368.18 225.94,368.06 226.41,367.95 226.88,367.84 227.34,367.72 227.81,367.61 228.28,367.49 228.75,367.38 229.22,367.26 229.69,367.15 230.16,367.04 230.62,366.92 231.09,366.81 231.56,366.69 232.03,366.58 232.50,366.46 232.97,366.35 233.44,366.24 233.91,366.12 234.38,366.01 234.84,365.89 235.31,365.78 235.78,365.66 236.25,365.55 236.72,365.43 237.19,365.32 237.66,365.21 238.12,365.09 238.59,364.98 239.06,364.86 239.53,364.75 240.00,364.63 240.47,364.52 240.94,364.40 241.41,364.29 241.88,364.17 242.34,364.06 242.81,363.94 243.28,363.83 243.75,363.72 244.22,363.60 244.69,363.49 245.16,363.37 245.62,363.26 246.09,363.14 246.56,363.03 247.03,362.91 247.50,362.80 247.97,362.68 248.44,362.57 248.91,362.45 249.38,362.34 249.84,362.22 250.31,362.11 250.78,361.99 251.25,361.88 251.72,361.76 252.19,361.65 252.66,361.53 253.12,361.42 253.59,361.30 254.06,361.19 254.53,361.07 255.00,360.96 255.47,360.84 255.94,360.73 256.41,360.61 256.88,360.50 257.34,360.38 257.81,360.27 258.28,360.15 258.75,360.04 259.22,359.92 259.69,359.81 260.16,359.69 260.62,359.58 261.09,359.46 261.56,359.35 262.03,359.23 262.50,359.12 262.97,359.00 263.44,358.89 263.91,358.77 264.38,358.66 264.84,358.54 265.31,358.43 265.78,358.31 266.25,358.20 266.72,358.08 267.19,357.97 267.66,357.85 268.12,357.74 268.59,357.62 269.06,357.50 269.53,357.39 270.00,357.27 270.47,357.16 270.94,357.04 271.41,356.93 271.88,356.81 272.34,356.70 272.81,356.58 273.28,356.47 273.75,356.35 274.22,356.24 274.69,356.12 275.16,356.00 275.62,355.89 276.09,355.77 276.56,355.66 277.03,355.54 277.50,355.43 277.97,355.31 278.44,355.20 278.91,355.08 279.38,354.96 279.84,354.85 280.31,354.73 280.78,354.62 281.25,354.50 281.72,354.39 282.19,354.27 282.66,354.16 283.12,354.04 283.59,353.92 284.06,353.81 284.53,353.69 285.00,353.58 285.47,353.46 285.94,353.35 286.41,353.23 286.88,353.11 287.34,353.00 287.81,352.88 288.28,352.77 288.75,352.65 289.22,352.53 289.69,352.42 290.16,352.30 290.62,352.19 291.09,352.07 291.56,351.96 292.03,351.84 292.50,351.72 292.97,351.61 293.44,351.49 293.91,351.38 294.38,351.26 294.84,351.14 295.31,351.03 295.78,350.91 296.25,350.80 296.72,350.68 297.19,350.56 297.66,350.45 298.12,350.33 298.59,350.22 299.06,350.10 299.53,349.98 300.00,349.87 300.47,349.75 300.94,349.64 301.41,349.52 301.88,349.40 302.34,349.29 302.81,349.17 303.28,349.06 303.75,348.94 304.22,348.82 304.69,348.71 305.16,348.59 305.62,348.48 306.09,348.36 306.56,348.24 307.03,348.13 307.50,348.01 307.97,347.89 308.44,347.78 308.91,347.66 309.38,347.55 309.84,347.43 310.31,347.31 310.78,347.20 311.25,347.08 311.72,346.97 312.19,346.85 312.66,346.73 313.12,346.62 313.59,346.50 314.06,346.38 314.53,346.27 315.00,346.15 315.47,346.03 315.94,345.92 316.41,345.80 316.88,345.69 317.34,345.57 317.81,345.45 318.28,345.34 318.75,345.22 319.22,345.10 319.69,344.99 320.16,344.87 320.62,344.75 321.09,344.64 321.56,344.52 322.03,344.40 322.50,344.29 322.97,344.17 323.44,344.06 323.91,343.94 324.38,343.82 324.84,343.71 325.31,343.59 325.78,343.47 326.25,343.36 326.72,343.24 327.19,343.12 327.66,343.01 328.12,342.89 328.59,342.77 329.06,342.66 329.53,342.54 330.00,342.42 330.47,342.31 330.94,342.19 331.41,342.07 331.88,341.96 332.34,341.84 332.81,341.72 333.28,341.61 333.75,341.49 334.22,341.37 334.69,341.26 335.16,341.14 335.62,341.02 336.09,340.91 336.56,340.79 337.03,340.67 337.50,340.56 337.97,340.44 338.44,340.32 338.91,340.21 339.38,340.09 339.84,339.97 340.31,339.86 340.78,339.74 341.25,339.62 341.72,339.51 342.19,339.39 342.66,339.27 343.12,339.16 343.59,339.04 344.06,338.92 344.53,338.80 345.00,338.69 345.47,338.57 345.94,338.45 346.41,338.34 346.88,338.22 347.34,338.10 347.81,337.99 348.28,337.87 348.75,337.75 349.22,337.64 349.69,337.52 350.16,337.40 350.62,337.28 351.09,337.17 351.56,337.05 352.03,336.93 352.50,336.82 352.97,336.70 353.44,336.58 353.91,336.47 354.38,336.35 354.84,336.23 355.31,336.11 355.78,336.00 356.25,335.88 356.72,335.76 357.19,335.65 357.66,335.53 358.12,335.41 358.59,335.30 359.06,335.18 359.53,335.06 360.00,334.94 360.47,334.83 360.94,334.71 361.41,334.59 361.88,334.48 362.34,334.36 362.81,334.24 363.28,334.12 363.75,334.01 364.22,333.89 364.69,333.77 365.16,333.66 365.62,333.54 366.09,333.42 366.56,333.30 367.03,333.19 367.50,333.07 367.97,332.95 368.44,332.83 368.91,332.72 369.38,332.60 369.84,332.48 370.31,332.37 370.78,332.25 371.25,332.13 371.72,332.01 372.19,331.90 372.66,331.78 373.12,331.66 373.59,331.54 374.06,331.43 374.53,331.31 375.00,331.19 375.47,331.08 375.94,330.96 376.41,330.84 376.88,330.72 377.34,330.61 377.81,330.49 378.28,330.37 378.75,330.25 379.22,330.14 379.69,330.02 380.16,329.90 380.62,329.78 381.09,329.67 381.56,329.55 382.03,329.43 382.50,329.31 382.97,329.20 383.44,329.08 383.91,328.96 384.38,328.84 384.84,328.73 385.31,328.61 385.78,328.49 386.25,328.37 386.72,328.26 387.19,328.14 387.66,328.02 388.12,327.90 388.59,327.79 389.06,327.67 389.53,327.55 390.00,327.43 390.47,327.32 390.94,327.20 391.41,327.08 391.88,326.96 392.34,326.85 392.81,326.73 393.28,326.61 393.75,326.49 394.22,326.38 394.69,326.26 395.16,326.14 395.62,326.02 396.09,325.91 396.56,325.79 397.03,325.67 397.50,325.55 397.97,325.43 398.44,325.32 398.91,325.20 399.38,325.08 399.84,324.96 400.31,324.85 400.78,324.73 401.25,324.61 401.72,324.49 402.19,324.38 402.66,324.26 403.12,324.14 403.59,324.02 404.06,323.90 404.53,323.79 405.00,323.67 405.47,323.55 405.94,323.43 406.41,323.32 406.88,323.20 407.34,323.08 407.81,322.96 408.28,322.84 408.75,322.73 409.22,322.61 409.69,322.49 410.16,322.37 410.62,322.26 411.09,322.14 411.56,322.02 412.03,321.90 412.50,321.78 412.97,321.67 413.44,321.55 413.91,321.43 414.38,321.31 414.84,321.19 415.31,321.08 415.78,320.96 416.25,320.84 416.72,320.72 417.19,320.61 417.66,320.49 418.12,320.37 418.59,320.25 419.06,320.13 419.53,320.02 420.00,319.90 420.47,319.78 420.94,319.66 421.41,319.54 421.88,319.43 422.34,319.31 422.81,319.19 423.28,319.07 423.75,318.95 424.22,318.84 424.69,318.72 425.16,318.60 425.62,318.48 426.09,318.36 426.56,318.25 427.03,318.13 427.50,318.01 427.97,317.89 428.44,317.77 428.91,317.66 429.38,317.54 429.84,317.42 430.31,317.30 430.78,317.18 431.25,317.07 431.72,316.95 432.19,316.83 432.66,316.71 433.12,316.59 433.59,316.47 434.06,316.36 434.53,316.24 435.00,316.12 435.47,316.00 435.94,315.88 436.41,315.77 436.88,315.65 437.34,315.53 437.81,315.41 438.28,315.29 438.75,315.18 439.22,315.06 439.69,314.94 440.16,314.82 440.62,314.70 441.09,314.58 441.56,314.47 442.03,314.35 442.50,314.23 442.97,314.11 443.44,313.99 443.91,313.88 444.38,313.76 444.84,313.64 445.31,313.52 445.78,313.40 446.25,313.28 446.72,313.17 447.19,313.05 447.66,312.93 448.12,312.81 448.59,312.69 449.06,312.57 449.53,312.46 450.00,312.34 450.47,312.22 450.94,312.10 451.41,311.98 451.88,311.86 452.34,311.75 452.81,311.63 453.28,311.51 453.75,311.39 454.22,311.27 454.69,311.15 455.16,311.04 455.62,310.92 456.09,310.80 456.56,310.68 457.03,310.56 457.50,310.44 457.97,310.33 458.44,310.21 458.91,310.09 459.38,309.97 459.84,309.85 460.31,309.73 460.78,309.62 461.25,309.50 461.72,309.38 462.19,309.26 462.66,309.14 463.12,309.02 463.59,308.91 464.06,308.79 464.53,308.67 465.00,308.55 465.47,308.43 465.94,308.31 466.41,308.19 466.87,308.08 467.34,307.96 467.81,307.84 468.28,307.72 468.75,307.60 469.22,307.48 469.69,307.37 470.16,307.25 470.63,307.13 471.09,307.01 471.56,306.89 472.03,306.77 472.50,306.65 472.97,306.54 473.44,306.42 473.91,306.30 474.38,306.18 474.84,306.06 475.31,305.94 475.78,305.82 476.25,305.71 476.72,305.59 477.19,305.47 477.66,305.35 478.12,305.23 478.59,305.11 479.06,304.99 479.53,304.88 480.00,304.76 480.47,304.64 480.94,304.52 481.41,304.40 481.88,304.28 482.34,304.16 482.81,304.05 483.28,303.93 483.75,303.81 484.22,303.69 484.69,303.57 485.16,303.45 485.62,303.33 486.09,303.22 486.56,303.10 487.03,302.98 487.50,302.86 487.97,302.74 488.44,302.62 488.91,302.50 489.38,302.39 489.84,302.27 490.31,302.15 490.78,302.03 491.25,301.91 491.72,301.79 492.19,301.67 492.66,301.55 493.12,301.44 493.59,301.32 494.06,301.20 494.53,301.08 495.00,300.96 495.47,300.84 495.94,300.72 496.41,300.60 496.88,300.49 497.34,300.37 497.81,300.25 498.28,300.13 498.75,300.01 499.22,299.89 499.69,299.77 500.16,299.65 500.62,299.54 501.09,299.42 501.56,299.30 502.03,299.18 502.50,299.06 502.97,298.94 503.44,298.82 503.91,298.70 504.38,298.59 504.84,298.47 505.31,298.35 505.78,298.23 506.25,298.11 506.72,297.99 507.19,297.87 507.66,297.75 508.12,297.63 508.59,297.52 509.06,297.40 509.53,297.28 510.00,297.16 510.47,297.04 510.94,296.92 511.41,296.80 511.88,296.68 512.34,296.56 512.81,296.45 513.28,296.33 513.75,296.21 514.22,296.09 514.69,295.97 515.16,295.85 515.62,295.73 516.09,295.61 516.56,295.49 517.03,295.38 517.50,295.26 517.97,295.14 518.44,295.02 518.91,294.90 519.38,294.78 519.84,294.66 520.31,294.54 520.78,294.42 521.25,294.31 521.72,294.19 522.19,294.07 522.66,293.95 523.12,293.83 523.59,293.71 524.06,293.59 524.53,293.47 525.00,293.35 525.47,293.23 525.94,293.12 526.41,293.00 526.88,292.88 527.34,292.76 527.81,292.64 528.28,292.52 528.75,292.40 529.22,292.28 529.69,292.16 530.16,292.04 530.62,291.93 531.09,291.81 531.56,291.69 532.03,291.57 532.50,291.45 532.97,291.33 533.44,291.21 533.91,291.09 534.38,290.97 534.84,290.85 535.31,290.74 535.78,290.62 536.25,290.50 536.72,290.38 537.19,290.26 537.66,290.14 538.12,290.02 538.59,289.90 539.06,289.78 539.53,289.66 540.00,289.54 540.47,289.43 540.94,289.31 541.41,289.19 541.88,289.07 542.34,288.95 542.81,288.83 543.28,288.71 543.75,288.59 544.22,288.47 544.69,288.35 545.16,288.23 545.62,288.11 546.09,288.00 546.56,287.88 547.03,287.76 547.50,287.64 547.97,287.52 548.44,287.40 548.91,287.28 549.38,287.16 549.84,287.04 550.31,286.92 550.78,286.80 551.25,286.68 551.72,286.57 552.19,286.45 552.66,286.33 553.12,286.21 553.59,286.09 554.06,285.97 554.53,285.85 555.00,285.73 555.47,285.61 555.94,285.49 556.41,285.37 556.88,285.25 557.34,285.14 557.81,285.02 558.28,284.90 558.75,284.78 559.22,284.66 559.69,284.54 560.16,284.42 560.62,284.30 561.09,284.18 561.56,284.06 562.03,283.94 562.50,283.82 562.97,283.70 563.44,283.59 563.91,283.47 564.38,283.35 564.84,283.23 565.31,283.11 565.78,282.99 566.25,282.87 566.72,282.75 567.19,282.63 567.66,282.51 568.12,282.39 568.59,282.27 569.06,282.15 569.53,282.03 570.00,281.91 570.47,281.80 570.94,281.68 571.41,281.56 571.88,281.44 572.34,281.32 572.81,281.20 573.28,281.08 573.75,280.96 574.22,280.84 574.69,280.72 575.16,280.60 575.62,280.48 576.09,280.36 576.56,280.24 577.03,280.12 577.50,280.01 577.97,279.89 578.44,279.77 578.91,279.65 579.38,279.53 579.84,279.41 580.31,279.29 580.78,279.17 581.25,279.05 581.72,278.93 582.19,278.81 582.66,278.69 583.12,278.57 583.59,278.45 584.06,278.33 584.53,278.21 585.00,278.10 585.47,277.98 585.94,277.86 586.41,277.74 586.88,277.62 587.34,277.50 587.81,277.38 588.28,277.26 588.75,277.14 589.22,277.02 589.69,276.90 590.16,276.78 590.62,276.66 591.09,276.54 591.56,276.42 592.03,276.30 592.50,276.18 592.97,276.06 593.44,275.95 593.91,275.83 594.38,275.71 594.84,275.59 595.31,275.47 595.78,275.35 596.25,275.23 596.72,275.11 597.19,274.99 597.66,274.87 598.12,274.75 598.59,274.63 599.06,274.51 599.53,274.39 600.00,274.27 600.47,274.15 600.94,274.03 601.41,273.91 601.88,273.79 602.34,273.67 602.81,273.56 603.28,273.44 603.75,273.32 604.22,273.20 604.69,273.08 605.16,272.96 605.62,272.84 606.09,272.72 606.56,272.60 607.03,272.48 607.50,272.36 607.97,272.24 608.44,272.12 608.91,272.00 609.38,271.88 609.84,271.76 610.31,271.64 610.78,271.52 611.25,271.40 611.72,271.28 612.19,271.16 612.66,271.04 613.12,270.92 613.59,270.81 614.06,270.69 614.53,270.57 615.00,270.45 615.47,270.33 615.94,270.21 616.41,270.09 616.88,269.97 617.34,269.85 617.81,269.73 618.28,269.61 618.75,269.49 619.22,269.37 619.69,269.25 620.16,269.13 620.62,269.01 621.09,268.89 621.56,268.77 622.03,268.65 622.50,268.53 622.97,268.41 623.44,268.29 623.91,268.17 624.38,268.05 624.84,267.93 625.31,267.81 625.78,267.70 626.25,267.58 626.72,267.46 627.19,267.34 627.66,267.22 628.12,267.10 628.59,266.98 629.06,266.86 629.53,266.74 630.00,266.62 630.47,266.50 630.94,266.38 631.41,266.26 631.88,266.14 632.34,266.02 632.81,265.90 633.28,265.78 633.75,265.66 634.22,265.54 634.69,265.42 635.16,265.30 635.62,265.18 636.09,265.06 636.56,264.94 637.03,264.82 637.50,264.70 637.97,264.58 638.44,264.46 638.91,264.34 639.38,264.22 639.84,264.10 640.31,263.98 640.78,263.86 641.25,263.74 641.72,263.62 642.19,263.51 642.66,263.39 643.12,263.27 643.59,263.15 644.06,263.03 644.53,262.91 645.00,262.79 645.47,262.67 645.94,262.55 646.41,262.43 646.88,262.31 647.34,262.19 647.81,262.07 648.28,261.95 648.75,261.83 649.22,261.71 649.69,261.59 650.16,261.47 650.62,261.35 651.09,261.23 651.56,261.11 652.03,260.99 652.50,260.87 652.97,260.75 653.44,260.63 653.91,260.51 654.38,260.39 654.84,260.27 655.31,260.15 655.78,260.03 656.25,259.91 656.72,259.79 657.19,259.67 657.66,259.55 658.12,259.43 658.59,259.31 659.06,259.19 659.53,259.07 660.00,258.95 660.47,258.83 660.94,258.71 661.41,258.59 661.88,258.47 662.34,258.35 662.81,258.23 663.28,258.11 663.75,257.99 664.22,257.87 664.69,257.75 665.16,257.63 665.62,257.51 666.09,257.39 666.56,257.27 667.03,257.15 667.50,257.03 667.97,256.92 668.44,256.80 668.91,256.68 669.38,256.56 669.84,256.44 670.31,256.32 670.78,256.20 671.25,256.08 671.72,255.96 672.19,255.84 672.66,255.72 673.12,255.60 673.59,255.48 674.06,255.36 674.53,255.24 675.00,255.12 675.47,255.00 675.94,254.88 676.41,254.76 676.88,254.64 677.34,254.52 677.81,254.40 678.28,254.28 678.75,254.16 679.22,254.04 679.69,253.92 680.16,253.80 680.62,253.68 681.09,253.56 681.56,253.44 682.03,253.32 682.50,253.20 682.97,253.08 683.44,252.96 683.91,252.84 684.38,252.72 684.84,252.60 685.31,252.48 685.78,252.36 686.25,252.24 686.72,252.12 687.19,252.00 687.66,251.88 688.12,251.76 688.59,251.64 689.06,251.52 689.53,251.40 690.00,251.28 690.47,251.16 690.94,251.04 691.41,250.92 691.88,250.80 692.34,250.68 692.81,250.56 693.28,250.44 693.75,250.32 694.22,250.20 694.69,250.08 695.16,249.96 695.62,249.84 696.09,249.72 696.56,249.60 697.03,249.48 697.50,249.36 697.97,249.24 698.44,249.12 698.91,249.00 699.38,248.88 699.84,248.76 700.31,248.64 700.78,248.52 701.25,248.40 701.72,248.28 702.19,248.16 702.66,248.04 703.12,247.92 703.59,247.80 704.06,247.68 704.53,247.56 705.00,247.44 705.47,247.32 705.94,247.20 706.41,247.08 706.88,246.96 707.34,246.84 707.81,246.72 708.28,246.60 708.75,246.48 709.22,246.36 709.69,246.24 710.16,246.12 710.62,246.00 711.09,245.88 711.56,245.76 712.03,245.64 712.50,245.52 712.97,245.40 713.44,245.28 713.91,245.16 714.38,245.04 714.84,244.92 715.31,244.80 715.78,244.68 716.25,244.56 716.72,244.43 717.19,244.31 717.66,244.19 718.12,244.07 718.59,243.95 719.06,243.83 719.53,243.71 720.00,243.59 720.47,243.47 720.94,243.35 721.41,243.23 721.88,243.11 722.34,242.99 722.81,242.87 723.28,242.75 723.75,242.63 724.22,242.51 724.69,242.39 725.16,242.27 725.62,242.15 726.09,242.03 726.56,241.91 727.03,241.79 727.50,241.67 727.97,241.55 728.44,241.43 728.91,241.31 729.38,241.19 729.84,241.07 730.31,240.95 730.78,240.83 731.25,240.71 731.72,240.59 732.19,240.47 732.66,240.35 733.12,240.23 733.59,240.11 734.06,239.99 734.53,239.87 735.00,239.75 735.47,239.63 735.94,239.51 736.41,239.39 736.88,239.27 737.34,239.15 737.81,239.03 738.28,238.91 738.75,238.79 739.22,238.67 739.69,238.55 740.16,238.43 740.62,238.31 741.09,238.19 741.56,238.07 742.03,237.95 742.50,237.83 742.97,237.71 743.44,237.59 743.91,237.47 744.38,237.35 744.84,237.22 745.31,237.10 745.78,236.98 746.25,236.86 746.72,236.74 747.19,236.62 747.66,236.50 748.12,236.38 748.59,236.26 749.06,236.14 749.53,236.02 750.00,235.90 750.47,235.78 750.94,235.66 751.41,235.54 751.88,235.42 752.34,235.30 752.81,235.18 753.28,235.06 753.75,234.94 754.22,234.82 754.69,234.70 755.16,234.58 755.62,234.46 756.09,234.34 756.56,234.22 757.03,234.10 757.50,233.98 757.97,233.86 758.44,233.74 758.91,233.62 759.38,233.50 759.84,233.38 760.31,233.26 760.78,233.14 761.25,233.02 761.72,232.90 762.19,232.78 762.66,232.66 763.13,232.53 763.59,232.41 764.06,232.29 764.53,232.17 765.00,232.05 765.47,231.93 765.94,231.81 766.41,231.69 766.88,231.57 767.34,231.45 767.81,231.33 768.28,231.21 768.75,231.09 769.22,230.97 769.69,230.85 770.16,230.73 770.62,230.61 771.09,230.49 771.56,230.37 772.03,230.25 772.50,230.13 772.97,230.01 773.44,229.89 773.91,229.77 774.37,229.65 774.84,229.53 775.31,229.41 775.78,229.29 776.25,229.17 776.72,229.05 777.19,228.93 777.66,228.80 778.12,228.68 778.59,228.56 779.06,228.44 779.53,228.32 780.00,228.20 780.47,228.08 780.94,227.96 781.41,227.84 781.88,227.72 782.34,227.60 782.81,227.48 783.28,227.36 783.75,227.24 784.22,227.12 784.69,227.00 785.16,226.88 785.62,226.76 786.09,226.64 786.56,226.52 787.03,226.40 787.50,226.28 787.97,226.16 788.44,226.04 788.91,225.92 789.38,225.80 789.84,225.68 790.31,225.55 790.78,225.43 791.25,225.31 791.72,225.19 792.19,225.07 792.66,224.95 793.12,224.83 793.59,224.71 794.06,224.59 794.53,224.47 795.00,224.35 795.47,224.23 795.94,224.11 796.41,223.99 796.88,223.87 797.34,223.75 797.81,223.63 798.28,223.51 798.75,223.39 799.22,223.27 799.69,223.15 800.16,223.03 800.63,222.91 801.09,222.79 801.56,222.67 802.03,222.54 802.50,222.42 802.97,222.30 803.44,222.18 803.91,222.06 804.38,221.94 804.84,221.82 805.31,221.70 805.78,221.58 806.25,221.46 806.72,221.34 807.19,221.22 807.66,221.10 808.12,220.98 808.59,220.86 809.06,220.74 809.53,220.62 810.00,220.50 810.47,220.38 810.94,220.26 811.41,220.14 811.87,220.02 812.34,219.89 812.81,219.77 813.28,219.65 813.75,219.53 814.22,219.41 814.69,219.29 815.16,219.17 815.62,219.05 816.09,218.93 816.56,218.81 817.03,218.69 817.50,218.57 817.97,218.45 818.44,218.33 818.91,218.21 819.38,218.09 819.84,217.97 820.31,217.85 820.78,217.73 821.25,217.61 821.72,217.49 822.19,217.36 822.66,217.24 823.12,217.12 823.59,217.00 824.06,216.88 824.53,216.76 825.00,216.64 825.47,216.52 825.94,216.40 826.41,216.28 826.88,216.16 827.34,216.04 827.81,215.92 828.28,215.80 828.75,215.68 829.22,215.56 829.69,215.44 830.16,215.32 830.62,215.20 831.09,215.08 831.56,214.95 832.03,214.83 832.50,214.71 832.97,214.59 833.44,214.47 833.91,214.35 834.38,214.23 834.84,214.11 835.31,213.99 835.78,213.87 836.25,213.75 836.72,213.63 837.19,213.51 837.66,213.39 838.12,213.27 838.59,213.15 839.06,213.03 839.53,212.91 840.00,212.78 840.47,212.66 840.94,212.54 841.41,212.42 841.88,212.30 842.34,212.18 842.81,212.06 843.28,211.94 843.75,211.82 844.22,211.70 844.69,211.58 845.16,211.46 845.62,211.34 846.09,211.22 846.56,211.10 847.03,210.98 847.50,210.86 847.97,210.74 848.44,210.61 848.91,210.49 849.38,210.37 849.84,210.25 850.31,210.13 850.78,210.01 851.25,209.89 851.72,209.77 852.19,209.65 852.66,209.53 853.12,209.41 853.59,209.29 854.06,209.17 854.53,209.05 855.00,208.93 855.47,208.81 855.94,208.69 856.41,208.56 856.88,208.44 857.34,208.32 857.81,208.20 858.28,208.08 858.75,207.96 859.22,207.84 859.69,207.72 860.16,207.60 860.62,207.48 861.09,207.36 861.56,207.24 862.03,207.12 862.50,207.00 862.97,206.88 863.44,206.76 863.91,206.64 864.38,206.51 864.84,206.39 865.31,206.27 865.78,206.15 866.25,206.03 866.72,205.91 867.19,205.79 867.66,205.67 868.12,205.55 868.59,205.43 869.06,205.31 869.53,205.19 870.00,205.07 870.47,204.95 870.94,204.83 871.41,204.71 871.88,204.58 872.34,204.46 872.81,204.34 873.28,204.22 873.75,204.10 874.22,203.98 874.69,203.86 875.16,203.74 875.62,203.62 876.09,203.50 876.56,203.38 877.03,203.26 877.50,203.14 877.97,203.02 878.44,202.90 878.91,202.77 879.38,202.65 879.84,202.53 880.31,202.41 880.78,202.29 881.25,202.17 881.72,202.05 882.19,201.93 882.66,201.81 883.12,201.69 883.59,201.57 884.06,201.45 884.53,201.33 885.00,201.21 885.47,201.09 885.94,200.96 886.41,200.84 886.88,200.72 887.34,200.60 887.81,200.48 888.28,200.36 888.75,200.24 889.22,200.12 889.69,200.00 890.16,199.88 890.62,199.76 891.09,199.64 891.56,199.52 892.03,199.40 892.50,199.28 892.97,199.15 893.44,199.03 893.91,198.91 894.38,198.79 894.84,198.67 895.31,198.55 895.78,198.43 896.25,198.31 896.72,198.19 897.19,198.07 897.66,197.95 898.12,197.83 898.59,197.71 899.06,197.59 899.53,197.46 900.00,197.34 900.47,197.22 900.94,197.10 901.41,196.98 901.88,196.86 902.34,196.74 902.81,196.62 903.28,196.50 903.75,196.38 904.22,196.26 904.69,196.14 905.16,196.02 905.62,195.90 906.09,195.77 906.56,195.65 907.03,195.53 907.50,195.41 907.97,195.29 908.44,195.17 908.91,195.05 909.38,194.93 909.84,194.81 910.31,194.69 910.78,194.57 911.25,194.45 911.72,194.33 912.19,194.20 912.66,194.08 913.12,193.96 913.59,193.84 914.06,193.72 914.53,193.60 915.00,193.48 915.47,193.36 915.94,193.24 916.41,193.12 916.88,193.00 917.34,192.88 917.81,192.76 918.28,192.63 918.75,192.51 919.22,192.39 919.69,192.27 920.16,192.15 920.62,192.03 921.09,191.91 921.56,191.79 922.03,191.67 922.50,191.55 922.97,191.43 923.44,191.31 923.91,191.19 924.38,191.06 924.84,190.94 925.31,190.82 925.78,190.70 926.25,190.58 926.72,190.46 927.19,190.34 927.66,190.22 928.12,190.10 928.59,189.98 929.06,189.86 929.53,189.74 930.00,189.62 930.47,189.49 930.94,189.37 931.41,189.25 931.88,189.13 932.34,189.01 932.81,188.89 933.28,188.77 933.75,188.65 934.22,188.53 934.69,188.41 935.16,188.29 935.62,188.17 936.09,188.05 936.56,187.92 937.03,187.80 937.50,187.68 937.97,187.56 938.44,187.44 938.91,187.32 939.38,187.20 939.84,187.08 940.31,186.96 940.78,186.84 941.25,186.72 941.72,186.60 942.19,186.47 942.66,186.35 943.12,186.23 943.59,186.11 944.06,185.99 944.53,185.87 945.00,185.75 945.47,185.63 945.94,185.51 946.41,185.39 946.88,185.27 947.34,185.15 947.81,185.02 948.28,184.90 948.75,184.78 949.22,184.66 949.69,184.54 950.16,184.42 950.62,184.30 951.09,184.18 951.56,184.06 952.03,183.94 952.50,183.82 952.97,183.70 953.44,183.57 953.91,183.45 954.38,183.33 954.84,183.21 955.31,183.09 955.78,182.97 956.25,182.85 956.72,182.73 957.19,182.61 957.66,182.49 958.12,182.37 958.59,182.25 959.06,182.12 959.53,182.00 960.00,181.88 960.47,181.76 960.94,181.64 961.41,181.52 961.88,181.40 962.34,181.28 962.81,181.16 963.28,181.04 963.75,180.92 964.22,180.80 964.69,180.67 965.16,180.55 965.62,180.43 966.09,180.31 966.56,180.19 967.03,180.07 967.50,179.95 967.97,179.83 968.44,179.71 968.91,179.59 969.38,179.47 969.84,179.34 970.31,179.22 970.78,179.10 971.25,178.98 971.72,178.86 972.19,178.74 972.66,178.62 973.12,178.50 973.59,178.38 974.06,178.26 974.53,178.14 975.00,178.01 975.47,177.89 975.94,177.77 976.41,177.65 976.88,177.53 977.34,177.41 977.81,177.29 978.28,177.17 978.75,177.05 979.22,176.93 979.69,176.81 980.16,176.69 980.62,176.56 981.09,176.44 981.56,176.32 982.03,176.20 982.50,176.08 982.97,175.96 983.44,175.84 983.91,175.72 984.38,175.60 984.84,175.48 985.31,175.36 985.78,175.23 986.25,175.11 986.72,174.99 987.19,174.87 987.66,174.75 988.12,174.63 988.59,174.51 989.06,174.39 989.53,174.27 990.00,174.15 990.47,174.03 990.94,173.90 991.41,173.78 991.88,173.66 992.34,173.54 992.81,173.42 993.28,173.30 993.75,173.18 994.22,173.06 994.69,172.94 995.16,172.82 995.62,172.69 996.09,172.57 996.56,172.45 997.03,172.33 997.50,172.21 997.97,172.09 998.44,171.97 998.91,171.85 999.38,171.73 999.84,171.61 1000.31,171.49 1000.78,171.36 1001.25,171.24 1001.72,171.12 1002.19,171.00 1002.66,170.88 1003.12,170.76 1003.59,170.64 1004.06,170.52 1004.53,170.40 1005.00,170.28 1005.47,170.16 1005.94,170.03 1006.41,169.91 1006.88,169.79 1007.34,169.67 1007.81,169.55 1008.28,169.43 1008.75,169.31 1009.22,169.19 1009.69,169.07 1010.16,168.95 1010.62,168.82 1011.09,168.70 1011.56,168.58 1012.03,168.46 1012.50,168.34 1012.97,168.22 1013.44,168.10 1013.91,167.98 1014.38,167.86 1014.84,167.74 1015.31,167.61 1015.78,167.49 1016.25,167.37 1016.72,167.25 1017.19,167.13 1017.66,167.01 1018.12,166.89 1018.59,166.77 1019.06,166.65 1019.53,166.53 1020.00,166.41 1020.47,166.28 1020.94,166.16 1021.41,166.04 1021.88,165.92 1022.34,165.80 1022.81,165.68 1023.28,165.56 1023.75,165.44 1024.22,165.32 1024.69,165.20 1025.16,165.07 1025.62,164.95 1026.09,164.83 1026.56,164.71 1027.03,164.59 1027.50,164.47 1027.97,164.35 1028.44,164.23 1028.91,164.11 1029.38,163.99 1029.84,163.86 1030.31,163.74 1030.78,163.62 1031.25,163.50 1031.72,163.38 1032.19,163.26 1032.66,163.14 1033.12,163.02 1033.59,162.90 1034.06,162.78 1034.53,162.65 1035.00,162.53 1035.47,162.41 1035.94,162.29 1036.41,162.17 1036.88,162.05 1037.34,161.93 1037.81,161.81 1038.28,161.69 1038.75,161.57 1039.22,161.44 1039.69,161.32 1040.16,161.20 1040.62,161.08 1041.09,160.96 1041.56,160.84 1042.03,160.72 1042.50,160.60 1042.97,160.48 1043.44,160.36 1043.91,160.23 1044.38,160.11 1044.84,159.99 1045.31,159.87 1045.78,159.75 1046.25,159.63 1046.72,159.51 1047.19,159.39 1047.66,159.27 1048.12,159.14 1048.59,159.02 1049.06,158.90 1049.53,158.78 1050.00,158.66" />
<text x="88" y="272.50" font-size="13" text-anchor="middle" transform="rotate(-90 88,272.50)">Position error norm (km)</text>
<text x="150" y="487" font-size="17" font-weight="700">Velocity Error</text>
<rect x="150" y="505" width="900" height="255" fill="#ffffff" stroke="#333333" />
<line x1="150" y1="760.00" x2="1050" y2="760.00" stroke="#dddddd" />
<text x="140" y="764.00" font-size="12" text-anchor="end">213.06</text>
<line x1="150" y1="696.25" x2="1050" y2="696.25" stroke="#dddddd" />
<text x="140" y="700.25" font-size="12" text-anchor="end">249.20</text>
<line x1="150" y1="632.50" x2="1050" y2="632.50" stroke="#dddddd" />
<text x="140" y="636.50" font-size="12" text-anchor="end">285.35</text>
<line x1="150" y1="568.75" x2="1050" y2="568.75" stroke="#dddddd" />
<text x="140" y="572.75" font-size="12" text-anchor="end">321.49</text>
<line x1="150" y1="505.00" x2="1050" y2="505.00" stroke="#dddddd" />
<text x="140" y="509.00" font-size="12" text-anchor="end">357.64</text>
<line x1="150.00" y1="505" x2="150.00" y2="760" stroke="#eeeeee" />
<text x="150.00" y="778" font-size="12" text-anchor="middle">0</text>
<line x1="300.00" y1="505" x2="300.00" y2="760" stroke="#eeeeee" />
<text x="300.00" y="778" font-size="12" text-anchor="middle">16</text>
<line x1="450.00" y1="505" x2="450.00" y2="760" stroke="#eeeeee" />
<text x="450.00" y="778" font-size="12" text-anchor="middle">32</text>
<line x1="600.00" y1="505" x2="600.00" y2="760" stroke="#eeeeee" />
<text x="600.00" y="778" font-size="12" text-anchor="middle">48</text>
<line x1="750.00" y1="505" x2="750.00" y2="760" stroke="#eeeeee" />
<text x="750.00" y="778" font-size="12" text-anchor="middle">64</text>
<line x1="900.00" y1="505" x2="900.00" y2="760" stroke="#eeeeee" />
<text x="900.00" y="778" font-size="12" text-anchor="middle">80</text>
<line x1="1050.00" y1="505" x2="1050.00" y2="760" stroke="#eeeeee" />
<text x="1050.00" y="778" font-size="12" text-anchor="middle">96</text>
<polyline fill="none" stroke="#1f77b4" stroke-width="2.5" points="150.00,518.66 150.47,518.66 150.94,518.66 151.41,518.66 151.88,518.66 152.34,518.66 152.81,518.66 153.28,518.66 153.75,518.66 154.22,518.66 154.69,518.66 155.16,518.66 155.62,518.66 156.09,518.66 156.56,518.66 157.03,518.66 157.50,518.66 157.97,518.66 158.44,518.66 158.91,518.66 159.38,518.66 159.84,518.66 160.31,518.66 160.78,518.66 161.25,518.66 161.72,518.66 162.19,518.66 162.66,518.66 163.12,518.66 163.59,518.66 164.06,518.66 164.53,518.66 165.00,518.66 165.47,518.66 165.94,518.66 166.41,518.66 166.88,518.66 167.34,518.66 167.81,518.66 168.28,518.66 168.75,518.66 169.22,518.66 169.69,518.66 170.16,518.66 170.62,518.66 171.09,518.66 171.56,518.66 172.03,518.66 172.50,518.66 172.97,518.66 173.44,518.66 173.91,518.66 174.38,518.66 174.84,518.66 175.31,518.66 175.78,518.66 176.25,518.66 176.72,518.66 177.19,518.66 177.66,518.66 178.12,518.66 178.59,518.66 179.06,518.66 179.53,518.66 180.00,518.66 180.47,518.66 180.94,518.66 181.41,518.66 181.88,518.66 182.34,518.66 182.81,518.66 183.28,518.66 183.75,518.66 184.22,518.66 184.69,518.66 185.16,518.66 185.62,518.66 186.09,518.66 186.56,518.66 187.03,518.66 187.50,518.66 187.97,518.66 188.44,518.66 188.91,518.66 189.38,518.66 189.84,518.66 190.31,518.66 190.78,518.66 191.25,518.66 191.72,518.66 192.19,518.66 192.66,518.66 193.12,518.66 193.59,518.66 194.06,518.66 194.53,518.66 195.00,518.66 195.47,518.66 195.94,518.66 196.41,518.66 196.88,518.66 197.34,518.66 197.81,518.66 198.28,518.66 198.75,518.66 199.22,518.66 199.69,518.66 200.16,518.66 200.62,518.66 201.09,518.66 201.56,518.66 202.03,518.66 202.50,518.66 202.97,518.66 203.44,518.66 203.91,518.66 204.38,518.66 204.84,518.66 205.31,518.66 205.78,518.66 206.25,518.66 206.72,518.66 207.19,518.66 207.66,518.66 208.12,518.66 208.59,518.66 209.06,518.66 209.53,518.66 210.00,518.66 210.47,518.66 210.94,518.66 211.41,518.66 211.88,518.66 212.34,518.66 212.81,518.66 213.28,518.66 213.75,518.66 214.22,518.66 214.69,518.66 215.16,518.66 215.62,518.66 216.09,518.66 216.56,518.66 217.03,518.66 217.50,518.66 217.97,518.66 218.44,518.66 218.91,518.66 219.38,518.66 219.84,518.66 220.31,518.66 220.78,518.66 221.25,518.66 221.72,518.66 222.19,518.66 222.66,518.66 223.12,518.66 223.59,518.66 224.06,518.66 224.53,518.66 225.00,518.66 225.47,518.66 225.94,518.66 226.41,518.66 226.88,518.66 227.34,518.66 227.81,518.66 228.28,518.66 228.75,518.66 229.22,518.66 229.69,518.66 230.16,518.66 230.62,518.66 231.09,518.66 231.56,518.66 232.03,518.66 232.50,518.66 232.97,518.66 233.44,518.66 233.91,518.66 234.38,518.66 234.84,518.66 235.31,518.66 235.78,518.66 236.25,518.66 236.72,518.66 237.19,518.66 237.66,518.66 238.12,518.66 238.59,518.66 239.06,518.66 239.53,518.66 240.00,518.66 240.47,518.66 240.94,518.66 241.41,518.66 241.88,518.66 242.34,518.66 242.81,518.66 243.28,518.66 243.75,518.66 244.22,518.66 244.69,518.66 245.16,518.66 245.62,518.66 246.09,518.66 246.56,518.66 247.03,518.66 247.50,518.66 247.97,518.66 248.44,518.66 248.91,518.66 249.38,518.66 249.84,518.66 250.31,518.66 250.78,518.66 251.25,518.66 251.72,518.66 252.19,518.66 252.66,518.66 253.12,518.66 253.59,518.66 254.06,518.66 254.53,518.66 255.00,518.66 255.47,518.66 255.94,518.66 256.41,518.66 256.88,518.66 257.34,518.66 257.81,518.66 258.28,518.66 258.75,518.67 259.22,518.67 259.69,518.67 260.16,518.67 260.62,518.67 261.09,518.67 261.56,518.67 262.03,518.67 262.50,518.67 262.97,518.67 263.44,518.67 263.91,518.67 264.38,518.67 264.84,518.67 265.31,518.67 265.78,518.67 266.25,518.67 266.72,518.67 267.19,518.67 267.66,518.67 268.12,518.67 268.59,518.67 269.06,518.67 269.53,518.67 270.00,518.67 270.47,518.67 270.94,518.67 271.41,518.67 271.88,518.67 272.34,518.67 272.81,518.67 273.28,518.67 273.75,518.67 274.22,518.67 274.69,518.67 275.16,518.67 275.62,518.67 276.09,518.67 276.56,518.67 277.03,518.67 277.50,518.67 277.97,518.67 278.44,518.67 278.91,518.67 279.38,518.67 279.84,518.67 280.31,518.67 280.78,518.67 281.25,518.67 281.72,518.67 282.19,518.67 282.66,518.67 283.12,518.67 283.59,518.67 284.06,518.67 284.53,518.67 285.00,518.67 285.47,518.67 285.94,518.67 286.41,518.67 286.88,518.67 287.34,518.67 287.81,518.67 288.28,518.67 288.75,518.67 289.22,518.67 289.69,518.67 290.16,518.67 290.62,518.67 291.09,518.67 291.56,518.67 292.03,518.67 292.50,518.67 292.97,518.67 293.44,518.67 293.91,518.67 294.38,518.67 294.84,518.67 295.31,518.67 295.78,518.67 296.25,518.67 296.72,518.67 297.19,518.67 297.66,518.67 298.12,518.67 298.59,518.67 299.06,518.67 299.53,518.67 300.00,518.67 300.47,518.67 300.94,518.67 301.41,518.67 301.88,518.67 302.34,518.67 302.81,518.67 303.28,518.67 303.75,518.67 304.22,518.67 304.69,518.67 305.16,518.67 305.62,518.67 306.09,518.67 306.56,518.67 307.03,518.67 307.50,518.67 307.97,518.67 308.44,518.67 308.91,518.67 309.38,518.67 309.84,518.67 310.31,518.67 310.78,518.67 311.25,518.67 311.72,518.67 312.19,518.67 312.66,518.67 313.12,518.67 313.59,518.67 314.06,518.67 314.53,518.67 315.00,518.67 315.47,518.67 315.94,518.67 316.41,518.67 316.88,518.67 317.34,518.67 317.81,518.67 318.28,518.67 318.75,518.67 319.22,518.67 319.69,518.67 320.16,518.67 320.62,518.67 321.09,518.67 321.56,518.67 322.03,518.67 322.50,518.67 322.97,518.67 323.44,518.67 323.91,518.67 324.38,518.67 324.84,518.67 325.31,518.67 325.78,518.67 326.25,518.67 326.72,518.67 327.19,518.67 327.66,518.67 328.12,518.67 328.59,518.67 329.06,518.67 329.53,518.67 330.00,518.67 330.47,518.67 330.94,518.67 331.41,518.67 331.88,518.67 332.34,518.67 332.81,518.67 333.28,518.67 333.75,518.67 334.22,518.67 334.69,518.67 335.16,518.67 335.62,518.67 336.09,518.67 336.56,518.67 337.03,518.67 337.50,518.67 337.97,518.67 338.44,518.67 338.91,518.67 339.38,518.67 339.84,518.67 340.31,518.67 340.78,518.67 341.25,518.67 341.72,518.67 342.19,518.67 342.66,518.67 343.12,518.67 343.59,518.67 344.06,518.67 344.53,518.67 345.00,518.67 345.47,518.67 345.94,518.67 346.41,518.67 346.88,518.67 347.34,518.67 347.81,518.67 348.28,518.67 348.75,518.67 349.22,518.67 349.69,518.67 350.16,518.67 350.62,518.67 351.09,518.67 351.56,518.67 352.03,518.67 352.50,518.67 352.97,518.67 353.44,518.67 353.91,518.67 354.38,518.67 354.84,518.67 355.31,518.67 355.78,518.67 356.25,518.67 356.72,518.67 357.19,518.67 357.66,518.67 358.12,518.67 358.59,518.67 359.06,518.67 359.53,518.67 360.00,518.67 360.47,518.67 360.94,518.67 361.41,518.67 361.88,518.67 362.34,518.67 362.81,518.67 363.28,518.67 363.75,518.67 364.22,518.67 364.69,518.67 365.16,518.67 365.62,518.67 366.09,518.67 366.56,518.67 367.03,518.67 367.50,518.67 367.97,518.67 368.44,518.67 368.91,518.67 369.38,518.67 369.84,518.67 370.31,518.67 370.78,518.67 371.25,518.67 371.72,518.67 372.19,518.67 372.66,518.67 373.12,518.67 373.59,518.67 374.06,518.67 374.53,518.67 375.00,518.67 375.47,518.67 375.94,518.67 376.41,518.67 376.88,518.67 377.34,518.67 377.81,518.67 378.28,518.67 378.75,518.67 379.22,518.67 379.69,518.67 380.16,518.67 380.62,518.67 381.09,518.67 381.56,518.67 382.03,518.67 382.50,518.67 382.97,518.67 383.44,518.67 383.91,518.67 384.38,518.67 384.84,518.67 385.31,518.67 385.78,518.67 386.25,518.67 386.72,518.67 387.19,518.67 387.66,518.67 388.12,518.67 388.59,518.67 389.06,518.67 389.53,518.67 390.00,518.67 390.47,518.67 390.94,518.67 391.41,518.67 391.88,518.67 392.34,518.67 392.81,518.67 393.28,518.67 393.75,518.67 394.22,518.67 394.69,518.67 395.16,518.67 395.62,518.67 396.09,518.67 396.56,518.67 397.03,518.67 397.50,518.67 397.97,518.67 398.44,518.67 398.91,518.67 399.38,518.67 399.84,518.67 400.31,518.67 400.78,518.67 401.25,518.67 401.72,518.67 402.19,518.67 402.66,518.67 403.12,518.67 403.59,518.67 404.06,518.67 404.53,518.67 405.00,518.67 405.47,518.67 405.94,518.67 406.41,518.67 406.88,518.67 407.34,518.67 407.81,518.67 408.28,518.67 408.75,518.67 409.22,518.67 409.69,518.67 410.16,518.67 410.62,518.67 411.09,518.67 411.56,518.67 412.03,518.67 412.50,518.67 412.97,518.67 413.44,518.67 413.91,518.67 414.38,518.67 414.84,518.67 415.31,518.67 415.78,518.67 416.25,518.67 416.72,518.67 417.19,518.67 417.66,518.67 418.12,518.67 418.59,518.67 419.06,518.67 419.53,518.67 420.00,518.67 420.47,518.67 420.94,518.67 421.41,518.67 421.88,518.67 422.34,518.67 422.81,518.67 423.28,518.67 423.75,518.67 424.22,518.67 424.69,518.67 425.16,518.67 425.62,518.67 426.09,518.67 426.56,518.67 427.03,518.67 427.50,518.67 427.97,518.67 428.44,518.67 428.91,518.67 429.38,518.67 429.84,518.67 430.31,518.67 430.78,518.67 431.25,518.67 431.72,518.67 432.19,518.67 432.66,518.67 433.12,518.67 433.59,518.67 434.06,518.67 434.53,518.67 435.00,518.67 435.47,518.67 435.94,518.67 436.41,518.67 436.88,518.67 437.34,518.67 437.81,518.67 438.28,518.67 438.75,518.68 439.22,518.68 439.69,518.68 440.16,518.68 440.62,518.68 441.09,518.68 441.56,518.68 442.03,518.68 442.50,518.68 442.97,518.68 443.44,518.68 443.91,518.68 444.38,518.68 444.84,518.68 445.31,518.68 445.78,518.68 446.25,518.68 446.72,518.68 447.19,518.68 447.66,518.68 448.12,518.68 448.59,518.68 449.06,518.68 449.53,518.68 450.00,518.68 450.47,518.68 450.94,518.68 451.41,518.68 451.88,518.68 452.34,518.68 452.81,518.68 453.28,518.68 453.75,518.68 454.22,518.68 454.69,518.68 455.16,518.68 455.62,518.68 456.09,518.68 456.56,518.68 457.03,518.68 457.50,518.68 457.97,518.68 458.44,518.68 458.91,518.68 459.38,518.68 459.84,518.68 460.31,518.68 460.78,518.68 461.25,518.68 461.72,518.68 462.19,518.68 462.66,518.68 463.12,518.68 463.59,518.68 464.06,518.68 464.53,518.68 465.00,518.68 465.47,518.68 465.94,518.68 466.41,518.68 466.87,518.68 467.34,518.68 467.81,518.68 468.28,518.68 468.75,518.68 469.22,518.68 469.69,518.68 470.16,518.68 470.63,518.68 471.09,518.68 471.56,518.68 472.03,518.68 472.50,518.68 472.97,518.68 473.44,518.68 473.91,518.68 474.38,518.68 474.84,518.68 475.31,518.68 475.78,518.68 476.25,518.68 476.72,518.68 477.19,518.68 477.66,518.68 478.12,518.68 478.59,518.68 479.06,518.68 479.53,518.68 480.00,518.68 480.47,518.68 480.94,518.68 481.41,518.68 481.88,518.68 482.34,518.68 482.81,518.68 483.28,518.68 483.75,518.68 484.22,518.68 484.69,518.68 485.16,518.68 485.62,518.68 486.09,518.68 486.56,518.68 487.03,518.68 487.50,518.68 487.97,518.68 488.44,518.68 488.91,518.68 489.38,518.68 489.84,518.68 490.31,518.68 490.78,518.68 491.25,518.68 491.72,518.68 492.19,518.68 492.66,518.68 493.12,518.68 493.59,518.68 494.06,518.68 494.53,518.68 495.00,518.68 495.47,518.68 495.94,518.68 496.41,518.68 496.88,518.68 497.34,518.68 497.81,518.68 498.28,518.68 498.75,518.68 499.22,518.68 499.69,518.68 500.16,518.68 500.62,518.68 501.09,518.68 501.56,518.68 502.03,518.68 502.50,518.68 502.97,518.68 503.44,518.68 503.91,518.68 504.38,518.68 504.84,518.68 505.31,518.68 505.78,518.68 506.25,518.68 506.72,518.68 507.19,518.68 507.66,518.68 508.12,518.68 508.59,518.68 509.06,518.68 509.53,518.68 510.00,518.68 510.47,518.68 510.94,518.68 511.41,518.68 511.88,518.68 512.34,518.68 512.81,518.68 513.28,518.68 513.75,518.68 514.22,518.68 514.69,518.68 515.16,518.68 515.62,518.68 516.09,518.68 516.56,518.68 517.03,518.68 517.50,518.68 517.97,518.68 518.44,518.68 518.91,518.68 519.38,518.68 519.84,518.68 520.31,518.68 520.78,518.68 521.25,518.68 521.72,518.68 522.19,518.68 522.66,518.68 523.12,518.68 523.59,518.68 524.06,518.68 524.53,518.68 525.00,518.68 525.47,518.68 525.94,518.68 526.41,518.68 526.88,518.68 527.34,518.68 527.81,518.68 528.28,518.68 528.75,518.68 529.22,518.68 529.69,518.68 530.16,518.68 530.62,518.68 531.09,518.68 531.56,518.68 532.03,518.68 532.50,518.68 532.97,518.68 533.44,518.68 533.91,518.68 534.38,518.68 534.84,518.68 535.31,518.68 535.78,518.68 536.25,518.68 536.72,518.68 537.19,518.68 537.66,518.68 538.12,518.68 538.59,518.68 539.06,518.68 539.53,518.68 540.00,518.68 540.47,518.68 540.94,518.68 541.41,518.68 541.88,518.68 542.34,518.68 542.81,518.68 543.28,518.68 543.75,518.68 544.22,518.68 544.69,518.68 545.16,518.68 545.62,518.68 546.09,518.68 546.56,518.68 547.03,518.68 547.50,518.68 547.97,518.68 548.44,518.68 548.91,518.68 549.38,518.68 549.84,518.68 550.31,518.68 550.78,518.68 551.25,518.68 551.72,518.68 552.19,518.68 552.66,518.68 553.12,518.68 553.59,518.68 554.06,518.68 554.53,518.68 555.00,518.68 555.47,518.68 555.94,518.68 556.41,518.68 556.88,518.68 557.34,518.68 557.81,518.68 558.28,518.68 558.75,518.68 559.22,518.68 559.69,518.68 560.16,518.68 560.62,518.68 561.09,518.68 561.56,518.68 562.03,518.68 562.50,518.68 562.97,518.68 563.44,518.68 563.91,518.68 564.38,518.68 564.84,518.68 565.31,518.68 565.78,518.68 566.25,518.68 566.72,518.68 567.19,518.68 567.66,518.68 568.12,518.68 568.59,518.68 569.06,518.68 569.53,518.68 570.00,518.68 570.47,518.68 570.94,518.68 571.41,518.68 571.88,518.68 572.34,518.68 572.81,518.68 573.28,518.68 573.75,518.68 574.22,518.69 574.69,518.69 575.16,518.69 575.62,518.69 576.09,518.69 576.56,518.69 577.03,518.69 577.50,518.69 577.97,518.69 578.44,518.69 578.91,518.69 579.38,518.69 579.84,518.69 580.31,518.69 580.78,518.69 581.25,518.69 581.72,518.69 582.19,518.69 582.66,518.69 583.12,518.69 583.59,518.69 584.06,518.69 584.53,518.69 585.00,518.69 585.47,518.69 585.94,518.69 586.41,518.69 586.88,518.69 587.34,518.69 587.81,518.69 588.28,518.69 588.75,518.69 589.22,518.69 589.69,518.69 590.16,518.69 590.62,518.69 591.09,518.69 591.56,518.69 592.03,518.69 592.50,518.69 592.97,518.69 593.44,518.69 593.91,518.69 594.38,518.69 594.84,518.69 595.31,518.69 595.78,518.69 596.25,518.69 596.72,518.69 597.19,518.69 597.66,518.69 598.12,518.69 598.59,518.69 599.06,518.69 599.53,518.69 600.00,518.69" />
<polyline fill="none" stroke="#d62728" stroke-width="2.5" points="150.00,746.29 150.47,746.29 150.94,746.29 151.41,746.29 151.88,746.29 152.34,746.29 152.81,746.29 153.28,746.29 153.75,746.29 154.22,746.29 154.69,746.29 155.16,746.29 155.62,746.29 156.09,746.29 156.56,746.29 157.03,746.29 157.50,746.29 157.97,746.29 158.44,746.29 158.91,746.29 159.38,746.29 159.84,746.29 160.31,746.29 160.78,746.29 161.25,746.29 161.72,746.29 162.19,746.29 162.66,746.29 163.12,746.29 163.59,746.29 164.06,746.29 164.53,746.29 165.00,746.29 165.47,746.29 165.94,746.29 166.41,746.29 166.88,746.29 167.34,746.29 167.81,746.29 168.28,746.29 168.75,746.29 169.22,746.29 169.69,746.29 170.16,746.29 170.62,746.29 171.09,746.29 171.56,746.29 172.03,746.29 172.50,746.29 172.97,746.29 173.44,746.29 173.91,746.29 174.38,746.29 174.84,746.29 175.31,746.29 175.78,746.29 176.25,746.29 176.72,746.29 177.19,746.29 177.66,746.29 178.12,746.29 178.59,746.29 179.06,746.29 179.53,746.29 180.00,746.29 180.47,746.29 180.94,746.29 181.41,746.29 181.88,746.29 182.34,746.29 182.81,746.29 183.28,746.29 183.75,746.29 184.22,746.29 184.69,746.29 185.16,746.29 185.62,746.29 186.09,746.29 186.56,746.29 187.03,746.29 187.50,746.29 187.97,746.29 188.44,746.29 188.91,746.29 189.38,746.29 189.84,746.29 190.31,746.29 190.78,746.29 191.25,746.29 191.72,746.29 192.19,746.29 192.66,746.29 193.12,746.29 193.59,746.29 194.06,746.29 194.53,746.29 195.00,746.29 195.47,746.29 195.94,746.29 196.41,746.29 196.88,746.29 197.34,746.29 197.81,746.29 198.28,746.29 198.75,746.29 199.22,746.29 199.69,746.29 200.16,746.29 200.62,746.29 201.09,746.29 201.56,746.29 202.03,746.29 202.50,746.29 202.97,746.29 203.44,746.29 203.91,746.29 204.38,746.29 204.84,746.29 205.31,746.29 205.78,746.29 206.25,746.29 206.72,746.29 207.19,746.29 207.66,746.29 208.12,746.29 208.59,746.29 209.06,746.29 209.53,746.29 210.00,746.29 210.47,746.29 210.94,746.29 211.41,746.29 211.88,746.29 212.34,746.29 212.81,746.29 213.28,746.29 213.75,746.29 214.22,746.29 214.69,746.29 215.16,746.29 215.62,746.29 216.09,746.29 216.56,746.29 217.03,746.29 217.50,746.29 217.97,746.29 218.44,746.29 218.91,746.29 219.38,746.29 219.84,746.29 220.31,746.29 220.78,746.29 221.25,746.29 221.72,746.29 222.19,746.29 222.66,746.29 223.12,746.29 223.59,746.29 224.06,746.29 224.53,746.29 225.00,746.29 225.47,746.29 225.94,746.29 226.41,746.29 226.88,746.29 227.34,746.29 227.81,746.29 228.28,746.29 228.75,746.29 229.22,746.29 229.69,746.29 230.16,746.29 230.62,746.29 231.09,746.29 231.56,746.29 232.03,746.29 232.50,746.29 232.97,746.29 233.44,746.29 233.91,746.29 234.38,746.29 234.84,746.29 235.31,746.29 235.78,746.29 236.25,746.29 236.72,746.29 237.19,746.29 237.66,746.29 238.12,746.29 238.59,746.29 239.06,746.29 239.53,746.29 240.00,746.29 240.47,746.29 240.94,746.29 241.41,746.29 241.88,746.29 242.34,746.29 242.81,746.29 243.28,746.29 243.75,746.29 244.22,746.29 244.69,746.29 245.16,746.29 245.62,746.29 246.09,746.29 246.56,746.29 247.03,746.29 247.50,746.29 247.97,746.29 248.44,746.29 248.91,746.29 249.38,746.29 249.84,746.29 250.31,746.29 250.78,746.29 251.25,746.29 251.72,746.29 252.19,746.29 252.66,746.29 253.12,746.29 253.59,746.29 254.06,746.29 254.53,746.29 255.00,746.29 255.47,746.29 255.94,746.29 256.41,746.29 256.88,746.29 257.34,746.29 257.81,746.29 258.28,746.29 258.75,746.29 259.22,746.29 259.69,746.29 260.16,746.29 260.62,746.29 261.09,746.29 261.56,746.29 262.03,746.29 262.50,746.29 262.97,746.29 263.44,746.29 263.91,746.29 264.38,746.29 264.84,746.29 265.31,746.29 265.78,746.29 266.25,746.29 266.72,746.29 267.19,746.29 267.66,746.29 268.12,746.29 268.59,746.29 269.06,746.29 269.53,746.29 270.00,746.29 270.47,746.29 270.94,746.29 271.41,746.29 271.88,746.29 272.34,746.29 272.81,746.29 273.28,746.29 273.75,746.29 274.22,746.29 274.69,746.29 275.16,746.29 275.62,746.29 276.09,746.29 276.56,746.29 277.03,746.29 277.50,746.29 277.97,746.29 278.44,746.29 278.91,746.29 279.38,746.29 279.84,746.29 280.31,746.29 280.78,746.29 281.25,746.29 281.72,746.29 282.19,746.29 282.66,746.29 283.12,746.29 283.59,746.29 284.06,746.29 284.53,746.29 285.00,746.29 285.47,746.29 285.94,746.29 286.41,746.29 286.88,746.29 287.34,746.29 287.81,746.29 288.28,746.29 288.75,746.29 289.22,746.29 289.69,746.29 290.16,746.29 290.62,746.29 291.09,746.29 291.56,746.29 292.03,746.29 292.50,746.29 292.97,746.29 293.44,746.29 293.91,746.29 294.38,746.29 294.84,746.29 295.31,746.29 295.78,746.29 296.25,746.29 296.72,746.29 297.19,746.29 297.66,746.29 298.12,746.29 298.59,746.29 299.06,746.29 299.53,746.29 300.00,746.29 300.47,746.29 300.94,746.29 301.41,746.29 301.88,746.29 302.34,746.29 302.81,746.29 303.28,746.29 303.75,746.29 304.22,746.29 304.69,746.29 305.16,746.29 305.62,746.29 306.09,746.29 306.56,746.29 307.03,746.29 307.50,746.29 307.97,746.29 308.44,746.29 308.91,746.29 309.38,746.29 309.84,746.29 310.31,746.29 310.78,746.29 311.25,746.29 311.72,746.29 312.19,746.29 312.66,746.29 313.12,746.29 313.59,746.29 314.06,746.29 314.53,746.29 315.00,746.29 315.47,746.29 315.94,746.29 316.41,746.29 316.88,746.29 317.34,746.29 317.81,746.29 318.28,746.29 318.75,746.29 319.22,746.29 319.69,746.29 320.16,746.29 320.62,746.29 321.09,746.29 321.56,746.29 322.03,746.29 322.50,746.29 322.97,746.29 323.44,746.29 323.91,746.29 324.38,746.29 324.84,746.29 325.31,746.29 325.78,746.29 326.25,746.29 326.72,746.29 327.19,746.29 327.66,746.29 328.12,746.29 328.59,746.29 329.06,746.29 329.53,746.29 330.00,746.29 330.47,746.29 330.94,746.29 331.41,746.29 331.88,746.29 332.34,746.29 332.81,746.29 333.28,746.29 333.75,746.29 334.22,746.29 334.69,746.29 335.16,746.29 335.62,746.29 336.09,746.29 336.56,746.29 337.03,746.29 337.50,746.29 337.97,746.29 338.44,746.29 338.91,746.29 339.38,746.29 339.84,746.29 340.31,746.29 340.78,746.29 341.25,746.29 341.72,746.29 342.19,746.29 342.66,746.29 343.12,746.29 343.59,746.29 344.06,746.29 344.53,746.29 345.00,746.29 345.47,746.29 345.94,746.29 346.41,746.29 346.88,746.29 347.34,746.29 347.81,746.29 348.28,746.29 348.75,746.29 349.22,746.29 349.69,746.29 350.16,746.29 350.62,746.29 351.09,746.29 351.56,746.29 352.03,746.29 352.50,746.29 352.97,746.29 353.44,746.29 353.91,746.29 354.38,746.29 354.84,746.29 355.31,746.29 355.78,746.29 356.25,746.29 356.72,746.29 357.19,746.29 357.66,746.29 358.12,746.29 358.59,746.29 359.06,746.29 359.53,746.29 360.00,746.29 360.47,746.29 360.94,746.29 361.41,746.29 361.88,746.29 362.34,746.29 362.81,746.29 363.28,746.29 363.75,746.29 364.22,746.29 364.69,746.29 365.16,746.29 365.62,746.29 366.09,746.29 366.56,746.29 367.03,746.29 367.50,746.29 367.97,746.29 368.44,746.29 368.91,746.29 369.38,746.29 369.84,746.29 370.31,746.29 370.78,746.29 371.25,746.29 371.72,746.29 372.19,746.29 372.66,746.29 373.12,746.29 373.59,746.29 374.06,746.29 374.53,746.29 375.00,746.29 375.47,746.29 375.94,746.29 376.41,746.29 376.88,746.29 377.34,746.29 377.81,746.29 378.28,746.29 378.75,746.29 379.22,746.29 379.69,746.29 380.16,746.29 380.62,746.29 381.09,746.29 381.56,746.29 382.03,746.29 382.50,746.29 382.97,746.29 383.44,746.29 383.91,746.29 384.38,746.29 384.84,746.29 385.31,746.29 385.78,746.29 386.25,746.29 386.72,746.29 387.19,746.29 387.66,746.29 388.12,746.29 388.59,746.29 389.06,746.29 389.53,746.29 390.00,746.29 390.47,746.29 390.94,746.29 391.41,746.29 391.88,746.29 392.34,746.29 392.81,746.29 393.28,746.29 393.75,746.29 394.22,746.29 394.69,746.29 395.16,746.29 395.62,746.29 396.09,746.29 396.56,746.29 397.03,746.29 397.50,746.29 397.97,746.29 398.44,746.29 398.91,746.29 399.38,746.29 399.84,746.29 400.31,746.29 400.78,746.29 401.25,746.29 401.72,746.29 402.19,746.29 402.66,746.29 403.12,746.29 403.59,746.29 404.06,746.29 404.53,746.29 405.00,746.29 405.47,746.29 405.94,746.29 406.41,746.29 406.88,746.29 407.34,746.29 407.81,746.29 408.28,746.29 408.75,746.29 409.22,746.29 409.69,746.29 410.16,746.29 410.62,746.29 411.09,746.29 411.56,746.29 412.03,746.29 412.50,746.29 412.97,746.29 413.44,746.29 413.91,746.29 414.38,746.29 414.84,746.29 415.31,746.29 415.78,746.29 416.25,746.29 416.72,746.29 417.19,746.29 417.66,746.29 418.12,746.29 418.59,746.29 419.06,746.29 419.53,746.29 420.00,746.29 420.47,746.29 420.94,746.29 421.41,746.30 421.88,746.30 422.34,746.30 422.81,746.30 423.28,746.30 423.75,746.30 424.22,746.30 424.69,746.30 425.16,746.30 425.62,746.30 426.09,746.30 426.56,746.30 427.03,746.30 427.50,746.30 427.97,746.30 428.44,746.30 428.91,746.30 429.38,746.30 429.84,746.30 430.31,746.30 430.78,746.30 431.25,746.30 431.72,746.30 432.19,746.30 432.66,746.30 433.12,746.30 433.59,746.30 434.06,746.30 434.53,746.30 435.00,746.30 435.47,746.30 435.94,746.30 436.41,746.30 436.88,746.30 437.34,746.30 437.81,746.30 438.28,746.30 438.75,746.30 439.22,746.30 439.69,746.30 440.16,746.30 440.62,746.30 441.09,746.30 441.56,746.30 442.03,746.30 442.50,746.30 442.97,746.30 443.44,746.30 443.91,746.30 444.38,746.30 444.84,746.30 445.31,746.30 445.78,746.30 446.25,746.30 446.72,746.30 447.19,746.30 447.66,746.30 448.12,746.30 448.59,746.30 449.06,746.30 449.53,746.30 450.00,746.30 450.47,746.30 450.94,746.30 451.41,746.30 451.88,746.30 452.34,746.30 452.81,746.30 453.28,746.30 453.75,746.30 454.22,746.30 454.69,746.30 455.16,746.30 455.62,746.30 456.09,746.30 456.56,746.30 457.03,746.30 457.50,746.30 457.97,746.30 458.44,746.30 458.91,746.30 459.38,746.30 459.84,746.30 460.31,746.30 460.78,746.30 461.25,746.30 461.72,746.30 462.19,746.30 462.66,746.30 463.12,746.30 463.59,746.30 464.06,746.30 464.53,746.30 465.00,746.30 465.47,746.30 465.94,746.30 466.41,746.30 466.87,746.30 467.34,746.30 467.81,746.30 468.28,746.30 468.75,746.30 469.22,746.30 469.69,746.30 470.16,746.30 470.63,746.30 471.09,746.30 471.56,746.30 472.03,746.30 472.50,746.30 472.97,746.30 473.44,746.30 473.91,746.30 474.38,746.30 474.84,746.30 475.31,746.30 475.78,746.30 476.25,746.30 476.72,746.30 477.19,746.30 477.66,746.30 478.12,746.30 478.59,746.30 479.06,746.30 479.53,746.30 480.00,746.30 480.47,746.30 480.94,746.30 481.41,746.30 481.88,746.30 482.34,746.30 482.81,746.30 483.28,746.30 483.75,746.30 484.22,746.30 484.69,746.30 485.16,746.30 485.62,746.30 486.09,746.30 486.56,746.30 487.03,746.30 487.50,746.30 487.97,746.30 488.44,746.30 488.91,746.30 489.38,746.30 489.84,746.30 490.31,746.30 490.78,746.30 491.25,746.30 491.72,746.30 492.19,746.30 492.66,746.30 493.12,746.30 493.59,746.30 494.06,746.30 494.53,746.30 495.00,746.30 495.47,746.30 495.94,746.30 496.41,746.30 496.88,746.30 497.34,746.30 497.81,746.30 498.28,746.30 498.75,746.30 499.22,746.30 499.69,746.30 500.16,746.30 500.62,746.30 501.09,746.30 501.56,746.30 502.03,746.30 502.50,746.30 502.97,746.30 503.44,746.30 503.91,746.30 504.38,746.30 504.84,746.30 505.31,746.30 505.78,746.30 506.25,746.30 506.72,746.30 507.19,746.30 507.66,746.30 508.12,746.30 508.59,746.30 509.06,746.30 509.53,746.30 510.00,746.30 510.47,746.30 510.94,746.30 511.41,746.30 511.88,746.30 512.34,746.30 512.81,746.30 513.28,746.30 513.75,746.30 514.22,746.30 514.69,746.30 515.16,746.30 515.62,746.30 516.09,746.30 516.56,746.30 517.03,746.30 517.50,746.30 517.97,746.30 518.44,746.30 518.91,746.30 519.38,746.30 519.84,746.30 520.31,746.30 520.78,746.30 521.25,746.30 521.72,746.30 522.19,746.30 522.66,746.30 523.12,746.30 523.59,746.30 524.06,746.30 524.53,746.30 525.00,746.30 525.47,746.30 525.94,746.30 526.41,746.30 526.88,746.30 527.34,746.30 527.81,746.30 528.28,746.30 528.75,746.30 529.22,746.30 529.69,746.30 530.16,746.30 530.62,746.30 531.09,746.30 531.56,746.30 532.03,746.30 532.50,746.30 532.97,746.30 533.44,746.30 533.91,746.30 534.38,746.30 534.84,746.30 535.31,746.30 535.78,746.30 536.25,746.30 536.72,746.30 537.19,746.30 537.66,746.30 538.12,746.30 538.59,746.30 539.06,746.30 539.53,746.30 540.00,746.30 540.47,746.30 540.94,746.30 541.41,746.30 541.88,746.30 542.34,746.30 542.81,746.30 543.28,746.30 543.75,746.30 544.22,746.30 544.69,746.30 545.16,746.30 545.62,746.30 546.09,746.30 546.56,746.30 547.03,746.30 547.50,746.30 547.97,746.30 548.44,746.30 548.91,746.30 549.38,746.30 549.84,746.30 550.31,746.30 550.78,746.30 551.25,746.30 551.72,746.30 552.19,746.30 552.66,746.30 553.12,746.30 553.59,746.30 554.06,746.30 554.53,746.30 555.00,746.30 555.47,746.30 555.94,746.30 556.41,746.30 556.88,746.30 557.34,746.30 557.81,746.30 558.28,746.30 558.75,746.30 559.22,746.30 559.69,746.30 560.16,746.30 560.62,746.30 561.09,746.30 561.56,746.30 562.03,746.30 562.50,746.30 562.97,746.30 563.44,746.30 563.91,746.30 564.38,746.30 564.84,746.30 565.31,746.30 565.78,746.30 566.25,746.30 566.72,746.30 567.19,746.30 567.66,746.30 568.12,746.30 568.59,746.30 569.06,746.30 569.53,746.30 570.00,746.30 570.47,746.30 570.94,746.30 571.41,746.30 571.88,746.30 572.34,746.30 572.81,746.30 573.28,746.30 573.75,746.30 574.22,746.30 574.69,746.30 575.16,746.30 575.62,746.30 576.09,746.30 576.56,746.30 577.03,746.30 577.50,746.30 577.97,746.30 578.44,746.30 578.91,746.30 579.38,746.30 579.84,746.30 580.31,746.30 580.78,746.30 581.25,746.30 581.72,746.30 582.19,746.30 582.66,746.30 583.12,746.30 583.59,746.30 584.06,746.30 584.53,746.30 585.00,746.30 585.47,746.30 585.94,746.30 586.41,746.30 586.88,746.30 587.34,746.30 587.81,746.30 588.28,746.30 588.75,746.30 589.22,746.30 589.69,746.30 590.16,746.30 590.62,746.30 591.09,746.30 591.56,746.30 592.03,746.30 592.50,746.30 592.97,746.30 593.44,746.30 593.91,746.30 594.38,746.30 594.84,746.30 595.31,746.30 595.78,746.30 596.25,746.30 596.72,746.30 597.19,746.30 597.66,746.30 598.12,746.30 598.59,746.30 599.06,746.30 599.53,746.30 600.00,746.30 600.47,746.30 600.94,746.30 601.41,746.30 601.88,746.30 602.34,746.30 602.81,746.30 603.28,746.30 603.75,746.30 604.22,746.30 604.69,746.30 605.16,746.30 605.62,746.30 606.09,746.30 606.56,746.30 607.03,746.30 607.50,746.30 607.97,746.30 608.44,746.30 608.91,746.30 609.38,746.30 609.84,746.30 610.31,746.30 610.78,746.30 611.25,746.30 611.72,746.31 612.19,746.31 612.66,746.31 613.12,746.31 613.59,746.31 614.06,746.31 614.53,746.31 615.00,746.31 615.47,746.31 615.94,746.31 616.41,746.31 616.88,746.31 617.34,746.31 617.81,746.31 618.28,746.31 618.75,746.31 619.22,746.31 619.69,746.31 620.16,746.31 620.62,746.31 621.09,746.31 621.56,746.31 622.03,746.31 622.50,746.31 622.97,746.31 623.44,746.31 623.91,746.31 624.38,746.31 624.84,746.31 625.31,746.31 625.78,746.31 626.25,746.31 626.72,746.31 627.19,746.31 627.66,746.31 628.12,746.31 628.59,746.31 629.06,746.31 629.53,746.31 630.00,746.31 630.47,746.31 630.94,746.31 631.41,746.31 631.88,746.31 632.34,746.31 632.81,746.31 633.28,746.31 633.75,746.31 634.22,746.31 634.69,746.31 635.16,746.31 635.62,746.31 636.09,746.31 636.56,746.31 637.03,746.31 637.50,746.31 637.97,746.31 638.44,746.31 638.91,746.31 639.38,746.31 639.84,746.31 640.31,746.31 640.78,746.31 641.25,746.31 641.72,746.31 642.19,746.31 642.66,746.31 643.12,746.31 643.59,746.31 644.06,746.31 644.53,746.31 645.00,746.31 645.47,746.31 645.94,746.31 646.41,746.31 646.88,746.31 647.34,746.31 647.81,746.31 648.28,746.31 648.75,746.31 649.22,746.31 649.69,746.31 650.16,746.31 650.62,746.31 651.09,746.31 651.56,746.31 652.03,746.31 652.50,746.31 652.97,746.31 653.44,746.31 653.91,746.31 654.38,746.31 654.84,746.31 655.31,746.31 655.78,746.31 656.25,746.31 656.72,746.31 657.19,746.31 657.66,746.31 658.12,746.31 658.59,746.31 659.06,746.31 659.53,746.31 660.00,746.31 660.47,746.31 660.94,746.31 661.41,746.31 661.88,746.31 662.34,746.31 662.81,746.31 663.28,746.31 663.75,746.31 664.22,746.31 664.69,746.31 665.16,746.31 665.62,746.31 666.09,746.31 666.56,746.31 667.03,746.31 667.50,746.31 667.97,746.31 668.44,746.31 668.91,746.31 669.38,746.31 669.84,746.31 670.31,746.31 670.78,746.31 671.25,746.31 671.72,746.31 672.19,746.31 672.66,746.31 673.12,746.31 673.59,746.31 674.06,746.31 674.53,746.31 675.00,746.31 675.47,746.31 675.94,746.31 676.41,746.31 676.88,746.31 677.34,746.31 677.81,746.31 678.28,746.31 678.75,746.31 679.22,746.31 679.69,746.31 680.16,746.31 680.62,746.31 681.09,746.31 681.56,746.31 682.03,746.31 682.50,746.31 682.97,746.31 683.44,746.31 683.91,746.31 684.38,746.31 684.84,746.31 685.31,746.31 685.78,746.31 686.25,746.31 686.72,746.31 687.19,746.31 687.66,746.31 688.12,746.31 688.59,746.31 689.06,746.31 689.53,746.31 690.00,746.31 690.47,746.31 690.94,746.31 691.41,746.31 691.88,746.31 692.34,746.31 692.81,746.31 693.28,746.31 693.75,746.31 694.22,746.31 694.69,746.31 695.16,746.31 695.62,746.31 696.09,746.31 696.56,746.31 697.03,746.31 697.50,746.31 697.97,746.31 698.44,746.31 698.91,746.31 699.38,746.31 699.84,746.31 700.31,746.31 700.78,746.31 701.25,746.31 701.72,746.31 702.19,746.31 702.66,746.31 703.12,746.31 703.59,746.31 704.06,746.31 704.53,746.31 705.00,746.31 705.47,746.31 705.94,746.31 706.41,746.31 706.88,746.31 707.34,746.31 707.81,746.31 708.28,746.31 708.75,746.31 709.22,746.31 709.69,746.31 710.16,746.31 710.62,746.31 711.09,746.31 711.56,746.31 712.03,746.31 712.50,746.31 712.97,746.31 713.44,746.31 713.91,746.31 714.38,746.31 714.84,746.31 715.31,746.31 715.78,746.31 716.25,746.31 716.72,746.31 717.19,746.31 717.66,746.31 718.12,746.31 718.59,746.31 719.06,746.31 719.53,746.31 720.00,746.31 720.47,746.31 720.94,746.31 721.41,746.31 721.88,746.31 722.34,746.31 722.81,746.31 723.28,746.31 723.75,746.31 724.22,746.31 724.69,746.31 725.16,746.31 725.62,746.31 726.09,746.31 726.56,746.31 727.03,746.31 727.50,746.31 727.97,746.31 728.44,746.31 728.91,746.31 729.38,746.31 729.84,746.31 730.31,746.31 730.78,746.31 731.25,746.31 731.72,746.31 732.19,746.31 732.66,746.31 733.12,746.31 733.59,746.31 734.06,746.31 734.53,746.31 735.00,746.31 735.47,746.31 735.94,746.31 736.41,746.31 736.88,746.31 737.34,746.31 737.81,746.31 738.28,746.31 738.75,746.31 739.22,746.31 739.69,746.31 740.16,746.31 740.62,746.31 741.09,746.31 741.56,746.31 742.03,746.31 742.50,746.31 742.97,746.31 743.44,746.31 743.91,746.31 744.38,746.31 744.84,746.31 745.31,746.31 745.78,746.31 746.25,746.31 746.72,746.31 747.19,746.31 747.66,746.31 748.12,746.31 748.59,746.31 749.06,746.31 749.53,746.31 750.00,746.31 750.47,746.31 750.94,746.31 751.41,746.31 751.88,746.31 752.34,746.31 752.81,746.31 753.28,746.31 753.75,746.31 754.22,746.31 754.69,746.31 755.16,746.31 755.62,746.31 756.09,746.31 756.56,746.31 757.03,746.31 757.50,746.31 757.97,746.31 758.44,746.31 758.91,746.31 759.38,746.31 759.84,746.31 760.31,746.31 760.78,746.31 761.25,746.31 761.72,746.31 762.19,746.31 762.66,746.31 763.13,746.32 763.59,746.32 764.06,746.32 764.53,746.32 765.00,746.32 765.47,746.32 765.94,746.32 766.41,746.32 766.88,746.32 767.34,746.32 767.81,746.32 768.28,746.32 768.75,746.32 769.22,746.32 769.69,746.32 770.16,746.32 770.62,746.32 771.09,746.32 771.56,746.32 772.03,746.32 772.50,746.32 772.97,746.32 773.44,746.32 773.91,746.32 774.37,746.32 774.84,746.32 775.31,746.32 775.78,746.32 776.25,746.32 776.72,746.32 777.19,746.32 777.66,746.32 778.12,746.32 778.59,746.32 779.06,746.32 779.53,746.32 780.00,746.32 780.47,746.32 780.94,746.32 781.41,746.32 781.88,746.32 782.34,746.32 782.81,746.32 783.28,746.32 783.75,746.32 784.22,746.32 784.69,746.32 785.16,746.32 785.62,746.32 786.09,746.32 786.56,746.32 787.03,746.32 787.50,746.32 787.97,746.32 788.44,746.32 788.91,746.32 789.38,746.32 789.84,746.32 790.31,746.32 790.78,746.32 791.25,746.32 791.72,746.32 792.19,746.32 792.66,746.32 793.12,746.32 793.59,746.32 794.06,746.32 794.53,746.32 795.00,746.32 795.47,746.32 795.94,746.32 796.41,746.32 796.88,746.32 797.34,746.32 797.81,746.32 798.28,746.32 798.75,746.32 799.22,746.32 799.69,746.32 800.16,746.32 800.63,746.32 801.09,746.32 801.56,746.32 802.03,746.32 802.50,746.32 802.97,746.32 803.44,746.32 803.91,746.32 804.38,746.32 804.84,746.32 805.31,746.32 805.78,746.32 806.25,746.32 806.72,746.32 807.19,746.32 807.66,746.32 808.12,746.32 808.59,746.32 809.06,746.32 809.53,746.32 810.00,746.32 810.47,746.32 810.94,746.32 811.41,746.32 811.87,746.32 812.34,746.32 812.81,746.32 813.28,746.32 813.75,746.32 814.22,746.32 814.69,746.32 815.16,746.32 815.62,746.32 816.09,746.32 816.56,746.32 817.03,746.32 817.50,746.32 817.97,746.32 818.44,746.32 818.91,746.32 819.38,746.32 819.84,746.32 820.31,746.32 820.78,746.32 821.25,746.32 821.72,746.32 822.19,746.32 822.66,746.32 823.12,746.32 823.59,746.32 824.06,746.32 824.53,746.32 825.00,746.32 825.47,746.32 825.94,746.32 826.41,746.32 826.88,746.32 827.34,746.32 827.81,746.32 828.28,746.32 828.75,746.32 829.22,746.32 829.69,746.32 830.16,746.32 830.62,746.32 831.09,746.32 831.56,746.32 832.03,746.32 832.50,746.32 832.97,746.32 833.44,746.32 833.91,746.32 834.38,746.32 834.84,746.32 835.31,746.32 835.78,746.32 836.25,746.32 836.72,746.32 837.19,746.32 837.66,746.32 838.12,746.32 838.59,746.32 839.06,746.32 839.53,746.32 840.00,746.32 840.47,746.32 840.94,746.32 841.41,746.32 841.88,746.32 842.34,746.32 842.81,746.32 843.28,746.32 843.75,746.32 844.22,746.32 844.69,746.32 845.16,746.32 845.62,746.32 846.09,746.32 846.56,746.32 847.03,746.32 847.50,746.32 847.97,746.32 848.44,746.32 848.91,746.32 849.38,746.32 849.84,746.32 850.31,746.32 850.78,746.32 851.25,746.32 851.72,746.32 852.19,746.32 852.66,746.32 853.12,746.32 853.59,746.32 854.06,746.32 854.53,746.32 855.00,746.32 855.47,746.32 855.94,746.32 856.41,746.32 856.88,746.32 857.34,746.32 857.81,746.32 858.28,746.32 858.75,746.32 859.22,746.32 859.69,746.32 860.16,746.32 860.62,746.32 861.09,746.32 861.56,746.32 862.03,746.32 862.50,746.32 862.97,746.32 863.44,746.32 863.91,746.32 864.38,746.32 864.84,746.32 865.31,746.32 865.78,746.32 866.25,746.32 866.72,746.32 867.19,746.32 867.66,746.32 868.12,746.32 868.59,746.32 869.06,746.32 869.53,746.32 870.00,746.32 870.47,746.32 870.94,746.32 871.41,746.32 871.88,746.32 872.34,746.32 872.81,746.32 873.28,746.32 873.75,746.32 874.22,746.32 874.69,746.32 875.16,746.32 875.62,746.32 876.09,746.32 876.56,746.32 877.03,746.32 877.50,746.32 877.97,746.32 878.44,746.32 878.91,746.32 879.38,746.32 879.84,746.32 880.31,746.32 880.78,746.32 881.25,746.32 881.72,746.32 882.19,746.32 882.66,746.32 883.12,746.32 883.59,746.32 884.06,746.32 884.53,746.32 885.00,746.32 885.47,746.32 885.94,746.32 886.41,746.32 886.88,746.32 887.34,746.32 887.81,746.32 888.28,746.32 888.75,746.32 889.22,746.32 889.69,746.32 890.16,746.32 890.62,746.32 891.09,746.32 891.56,746.32 892.03,746.33 892.50,746.33 892.97,746.33 893.44,746.33 893.91,746.33 894.38,746.33 894.84,746.33 895.31,746.33 895.78,746.33 896.25,746.33 896.72,746.33 897.19,746.33 897.66,746.33 898.12,746.33 898.59,746.33 899.06,746.33 899.53,746.33 900.00,746.33 900.47,746.33 900.94,746.33 901.41,746.33 901.88,746.33 902.34,746.33 902.81,746.33 903.28,746.33 903.75,746.33 904.22,746.33 904.69,746.33 905.16,746.33 905.62,746.33 906.09,746.33 906.56,746.33 907.03,746.33 907.50,746.33 907.97,746.33 908.44,746.33 908.91,746.33 909.38,746.33 909.84,746.33 910.31,746.33 910.78,746.33 911.25,746.33 911.72,746.33 912.19,746.33 912.66,746.33 913.12,746.33 913.59,746.33 914.06,746.33 914.53,746.33 915.00,746.33 915.47,746.33 915.94,746.33 916.41,746.33 916.88,746.33 917.34,746.33 917.81,746.33 918.28,746.33 918.75,746.33 919.22,746.33 919.69,746.33 920.16,746.33 920.62,746.33 921.09,746.33 921.56,746.33 922.03,746.33 922.50,746.33 922.97,746.33 923.44,746.33 923.91,746.33 924.38,746.33 924.84,746.33 925.31,746.33 925.78,746.33 926.25,746.33 926.72,746.33 927.19,746.33 927.66,746.33 928.12,746.33 928.59,746.33 929.06,746.33 929.53,746.33 930.00,746.33 930.47,746.33 930.94,746.33 931.41,746.33 931.88,746.33 932.34,746.33 932.81,746.33 933.28,746.33 933.75,746.33 934.22,746.33 934.69,746.33 935.16,746.33 935.62,746.33 936.09,746.33 936.56,746.33 937.03,746.33 937.50,746.33 937.97,746.33 938.44,746.33 938.91,746.33 939.38,746.33 939.84,746.33 940.31,746.33 940.78,746.33 941.25,746.33 941.72,746.33 942.19,746.33 942.66,746.33 943.12,746.33 943.59,746.33 944.06,746.33 944.53,746.33 945.00,746.33 945.47,746.33 945.94,746.33 946.41,746.33 946.88,746.33 947.34,746.33 947.81,746.33 948.28,746.33 948.75,746.33 949.22,746.33 949.69,746.33 950.16,746.33 950.62,746.33 951.09,746.33 951.56,746.33 952.03,746.33 952.50,746.33 952.97,746.33 953.44,746.33 953.91,746.33 954.38,746.33 954.84,746.33 955.31,746.33 955.78,746.33 956.25,746.33 956.72,746.33 957.19,746.33 957.66,746.33 958.12,746.33 958.59,746.33 959.06,746.33 959.53,746.33 960.00,746.33 960.47,746.33 960.94,746.33 961.41,746.33 961.88,746.33 962.34,746.33 962.81,746.33 963.28,746.33 963.75,746.33 964.22,746.33 964.69,746.33 965.16,746.33 965.62,746.33 966.09,746.33 966.56,746.33 967.03,746.33 967.50,746.33 967.97,746.33 968.44,746.33 968.91,746.33 969.38,746.33 969.84,746.33 970.31,746.33 970.78,746.33 971.25,746.33 971.72,746.33 972.19,746.33 972.66,746.33 973.12,746.33 973.59,746.33 974.06,746.33 974.53,746.33 975.00,746.33 975.47,746.33 975.94,746.33 976.41,746.33 976.88,746.33 977.34,746.33 977.81,746.33 978.28,746.33 978.75,746.33 979.22,746.33 979.69,746.33 980.16,746.33 980.62,746.33 981.09,746.33 981.56,746.33 982.03,746.33 982.50,746.33 982.97,746.33 983.44,746.33 983.91,746.33 984.38,746.33 984.84,746.33 985.31,746.33 985.78,746.33 986.25,746.33 986.72,746.33 987.19,746.33 987.66,746.33 988.12,746.33 988.59,746.33 989.06,746.33 989.53,746.33 990.00,746.33 990.47,746.33 990.94,746.33 991.41,746.33 991.88,746.33 992.34,746.33 992.81,746.33 993.28,746.33 993.75,746.33 994.22,746.33 994.69,746.33 995.16,746.33 995.62,746.33 996.09,746.33 996.56,746.33 997.03,746.33 997.50,746.33 997.97,746.33 998.44,746.33 998.91,746.33 999.38,746.33 999.84,746.33 1000.31,746.33 1000.78,746.33 1001.25,746.33 1001.72,746.33 1002.19,746.33 1002.66,746.33 1003.12,746.33 1003.59,746.33 1004.06,746.33 1004.53,746.33 1005.00,746.33 1005.47,746.34 1005.94,746.34 1006.41,746.34 1006.88,746.34 1007.34,746.34 1007.81,746.34 1008.28,746.34 1008.75,746.34 1009.22,746.34 1009.69,746.34 1010.16,746.34 1010.62,746.34 1011.09,746.34 1011.56,746.34 1012.03,746.34 1012.50,746.34 1012.97,746.34 1013.44,746.34 1013.91,746.34 1014.38,746.34 1014.84,746.34 1015.31,746.34 1015.78,746.34 1016.25,746.34 1016.72,746.34 1017.19,746.34 1017.66,746.34 1018.12,746.34 1018.59,746.34 1019.06,746.34 1019.53,746.34 1020.00,746.34 1020.47,746.34 1020.94,746.34 1021.41,746.34 1021.88,746.34 1022.34,746.34 1022.81,746.34 1023.28,746.34 1023.75,746.34 1024.22,746.34 1024.69,746.34 1025.16,746.34 1025.62,746.34 1026.09,746.34 1026.56,746.34 1027.03,746.34 1027.50,746.34 1027.97,746.34 1028.44,746.34 1028.91,746.34 1029.38,746.34 1029.84,746.34 1030.31,746.34 1030.78,746.34 1031.25,746.34 1031.72,746.34 1032.19,746.34 1032.66,746.34 1033.12,746.34 1033.59,746.34 1034.06,746.34 1034.53,746.34 1035.00,746.34 1035.47,746.34 1035.94,746.34 1036.41,746.34 1036.88,746.34 1037.34,746.34 1037.81,746.34 1038.28,746.34 1038.75,746.34 1039.22,746.34 1039.69,746.34 1040.16,746.34 1040.62,746.34 1041.09,746.34 1041.56,746.34 1042.03,746.34 1042.50,746.34 1042.97,746.34 1043.44,746.34 1043.91,746.34 1044.38,746.34 1044.84,746.34 1045.31,746.34 1045.78,746.34 1046.25,746.34 1046.72,746.34 1047.19,746.34 1047.66,746.34 1048.12,746.34 1048.59,746.34 1049.06,746.34 1049.53,746.34 1050.00,746.34" />
<text x="88" y="632.50" font-size="13" text-anchor="middle" transform="rotate(-90 88,632.50)">Velocity error norm (mm/s)</text>
<line x1="720" y1="100" x2="750" y2="100" stroke="#1f77b4" stroke-width="3" />
<text x="760" y="105" font-size="14">Range + range-rate</text>
<line x1="720" y1="124" x2="750" y2="124" stroke="#d62728" stroke-width="3" />
<text x="760" y="129" font-size="14">Range + range-rate + VLBI</text>
<text x="600" y="807" text-anchor="middle" font-size="13">Hours since first observation</text>
</svg>
